<mxfile host="app.diagrams.net" agent="Mozilla/5.0 (Windows NT 10.0; Win64; x64) AppleWebKit/537.36 (KHTML, like Gecko) Chrome/135.0.0.0 Safari/537.36" version="26.2.13">
  <diagram name="Page-1" id="HhtQjIhKFEfLpziX8jUD">
    <mxGraphModel dx="1675" dy="936" grid="1" gridSize="10" guides="1" tooltips="1" connect="1" arrows="1" fold="1" page="1" pageScale="1" pageWidth="827" pageHeight="1169" background="light-dark(#FFFFFF,#121212)" math="0" shadow="0">
      <root>
        <mxCell id="0" />
        <mxCell id="1" parent="0" />
        <mxCell id="ZDt4lYfHtHXYlEFiBq8j-8" value="" style="endArrow=ERzeroToMany;html=1;rounded=0;exitX=1;exitY=0.5;exitDx=0;exitDy=0;entryX=0;entryY=0.5;entryDx=0;entryDy=0;startArrow=ERone;startFill=0;endFill=0;strokeWidth=2;strokeColor=#808080;" edge="1" parent="1" source="ZDt4lYfHtHXYlEFiBq8j-87" target="ZDt4lYfHtHXYlEFiBq8j-19">
          <mxGeometry width="50" height="50" relative="1" as="geometry">
            <mxPoint x="1170" y="110" as="sourcePoint" />
            <mxPoint x="1220" y="60" as="targetPoint" />
            <Array as="points">
              <mxPoint x="1200" y="105" />
              <mxPoint x="1200" y="185" />
            </Array>
          </mxGeometry>
        </mxCell>
        <mxCell id="ZDt4lYfHtHXYlEFiBq8j-9" value="" style="endArrow=ERzeroToMany;html=1;rounded=0;entryX=0;entryY=0.5;entryDx=0;entryDy=0;startArrow=none;startFill=0;endFill=0;strokeWidth=2;strokeColor=#808080;" edge="1" parent="1">
          <mxGeometry width="50" height="50" relative="1" as="geometry">
            <mxPoint x="1200" y="180" as="sourcePoint" />
            <mxPoint x="1360" y="566" as="targetPoint" />
            <Array as="points">
              <mxPoint x="1200" y="566" />
            </Array>
          </mxGeometry>
        </mxCell>
        <mxCell id="ZDt4lYfHtHXYlEFiBq8j-10" value="" style="endArrow=ERzeroToMany;html=1;rounded=0;entryX=0;entryY=0.5;entryDx=0;entryDy=0;startArrow=none;startFill=0;endFill=0;strokeWidth=2;strokeColor=light-dark(#808080, #ededed);" edge="1" parent="1" target="ZDt4lYfHtHXYlEFiBq8j-172">
          <mxGeometry width="50" height="50" relative="1" as="geometry">
            <mxPoint x="1200" y="470" as="sourcePoint" />
            <mxPoint x="1370" y="495" as="targetPoint" />
            <Array as="points">
              <mxPoint x="800" y="470" />
              <mxPoint x="800" y="565" />
            </Array>
          </mxGeometry>
        </mxCell>
        <mxCell id="ZDt4lYfHtHXYlEFiBq8j-11" value="" style="endArrow=ERzeroToMany;html=1;rounded=0;exitX=0;exitY=0.5;exitDx=0;exitDy=0;startArrow=ERzeroToOne;startFill=0;endFill=0;strokeWidth=2;entryX=1;entryY=0.5;entryDx=0;entryDy=0;" edge="1" parent="1" source="ZDt4lYfHtHXYlEFiBq8j-58" target="ZDt4lYfHtHXYlEFiBq8j-175">
          <mxGeometry width="50" height="50" relative="1" as="geometry">
            <mxPoint x="1090" y="195" as="sourcePoint" />
            <mxPoint x="1210" y="680" as="targetPoint" />
            <Array as="points">
              <mxPoint x="1230" y="535" />
              <mxPoint x="1230" y="595" />
            </Array>
          </mxGeometry>
        </mxCell>
        <mxCell id="ZDt4lYfHtHXYlEFiBq8j-12" value="" style="endArrow=ERzeroToMany;html=1;rounded=0;exitX=0;exitY=0.5;exitDx=0;exitDy=0;entryX=1;entryY=0.5;entryDx=0;entryDy=0;startArrow=ERzeroToMany;startFill=0;endFill=0;strokeWidth=2;" edge="1" parent="1" source="ZDt4lYfHtHXYlEFiBq8j-87" target="ZDt4lYfHtHXYlEFiBq8j-140">
          <mxGeometry width="50" height="50" relative="1" as="geometry">
            <mxPoint x="1090" y="195" as="sourcePoint" />
            <mxPoint x="1370" y="575" as="targetPoint" />
            <Array as="points">
              <mxPoint x="720" y="105" />
              <mxPoint x="720" y="405" />
            </Array>
          </mxGeometry>
        </mxCell>
        <mxCell id="ZDt4lYfHtHXYlEFiBq8j-13" value="" style="endArrow=ERzeroToMany;html=1;rounded=0;exitX=0;exitY=0.5;exitDx=0;exitDy=0;entryX=1;entryY=0.5;entryDx=0;entryDy=0;startArrow=ERzeroToMany;startFill=0;endFill=0;strokeWidth=2;" edge="1" parent="1" source="ZDt4lYfHtHXYlEFiBq8j-169" target="ZDt4lYfHtHXYlEFiBq8j-136">
          <mxGeometry width="50" height="50" relative="1" as="geometry">
            <mxPoint x="850" y="165" as="sourcePoint" />
            <mxPoint x="640" y="415" as="targetPoint" />
            <Array as="points">
              <mxPoint x="720" y="535" />
              <mxPoint x="720" y="435" />
            </Array>
          </mxGeometry>
        </mxCell>
        <mxCell id="ZDt4lYfHtHXYlEFiBq8j-14" value="" style="group;shadow=1;" vertex="1" connectable="0" parent="1">
          <mxGeometry x="1360" y="110" width="240" height="300" as="geometry" />
        </mxCell>
        <mxCell id="ZDt4lYfHtHXYlEFiBq8j-15" value="Session" style="shape=table;startSize=30;container=1;collapsible=1;childLayout=tableLayout;fixedRows=1;rowLines=0;fontStyle=1;align=center;resizeLast=1;html=1;fillColor=#ffe6cc;strokeColor=#d79b00;shadow=1;" vertex="1" parent="ZDt4lYfHtHXYlEFiBq8j-14">
          <mxGeometry width="240" height="270" as="geometry">
            <mxRectangle width="80" height="30" as="alternateBounds" />
          </mxGeometry>
        </mxCell>
        <mxCell id="ZDt4lYfHtHXYlEFiBq8j-16" value="" style="shape=tableRow;horizontal=0;startSize=0;swimlaneHead=0;swimlaneBody=0;fillColor=none;collapsible=0;dropTarget=0;points=[[0,0.5],[1,0.5]];portConstraint=eastwest;top=0;left=0;right=0;bottom=1;shadow=1;" vertex="1" parent="ZDt4lYfHtHXYlEFiBq8j-15">
          <mxGeometry y="30" width="240" height="30" as="geometry" />
        </mxCell>
        <mxCell id="ZDt4lYfHtHXYlEFiBq8j-17" value="PK" style="shape=partialRectangle;connectable=0;fillColor=#fff2cc;top=0;left=0;bottom=0;right=0;fontStyle=1;overflow=hidden;whiteSpace=wrap;html=1;strokeColor=#d6b656;shadow=1;" vertex="1" parent="ZDt4lYfHtHXYlEFiBq8j-16">
          <mxGeometry width="30" height="30" as="geometry">
            <mxRectangle width="30" height="30" as="alternateBounds" />
          </mxGeometry>
        </mxCell>
        <mxCell id="ZDt4lYfHtHXYlEFiBq8j-18" value="id" style="shape=partialRectangle;connectable=0;fillColor=#fff2cc;top=0;left=0;bottom=0;right=0;align=left;spacingLeft=6;fontStyle=5;overflow=hidden;whiteSpace=wrap;html=1;strokeColor=#d6b656;shadow=1;" vertex="1" parent="ZDt4lYfHtHXYlEFiBq8j-16">
          <mxGeometry x="30" width="210" height="30" as="geometry">
            <mxRectangle width="210" height="30" as="alternateBounds" />
          </mxGeometry>
        </mxCell>
        <mxCell id="ZDt4lYfHtHXYlEFiBq8j-19" value="" style="shape=tableRow;horizontal=0;startSize=0;swimlaneHead=0;swimlaneBody=0;fillColor=none;collapsible=0;dropTarget=0;points=[[0,0.5],[1,0.5]];portConstraint=eastwest;top=0;left=0;right=0;bottom=0;shadow=1;" vertex="1" parent="ZDt4lYfHtHXYlEFiBq8j-15">
          <mxGeometry y="60" width="240" height="30" as="geometry" />
        </mxCell>
        <mxCell id="ZDt4lYfHtHXYlEFiBq8j-20" value="FK" style="shape=partialRectangle;connectable=0;fillColor=#dae8fc;top=0;left=0;bottom=0;right=0;fontStyle=0;overflow=hidden;whiteSpace=wrap;html=1;strokeColor=#6c8ebf;shadow=1;" vertex="1" parent="ZDt4lYfHtHXYlEFiBq8j-19">
          <mxGeometry width="30" height="30" as="geometry">
            <mxRectangle width="30" height="30" as="alternateBounds" />
          </mxGeometry>
        </mxCell>
        <mxCell id="ZDt4lYfHtHXYlEFiBq8j-21" value="user_id" style="shape=partialRectangle;connectable=0;fillColor=#dae8fc;top=0;left=0;bottom=0;right=0;align=left;spacingLeft=6;fontStyle=0;overflow=hidden;whiteSpace=wrap;html=1;strokeColor=#6c8ebf;shadow=1;" vertex="1" parent="ZDt4lYfHtHXYlEFiBq8j-19">
          <mxGeometry x="30" width="210" height="30" as="geometry">
            <mxRectangle width="210" height="30" as="alternateBounds" />
          </mxGeometry>
        </mxCell>
        <mxCell id="ZDt4lYfHtHXYlEFiBq8j-22" value="" style="shape=tableRow;horizontal=0;startSize=0;swimlaneHead=0;swimlaneBody=0;fillColor=none;collapsible=0;dropTarget=0;points=[[0,0.5],[1,0.5]];portConstraint=eastwest;top=0;left=0;right=0;bottom=0;shadow=1;" vertex="1" parent="ZDt4lYfHtHXYlEFiBq8j-15">
          <mxGeometry y="90" width="240" height="30" as="geometry" />
        </mxCell>
        <mxCell id="ZDt4lYfHtHXYlEFiBq8j-23" value="" style="shape=partialRectangle;connectable=0;fillColor=#dae8fc;top=0;left=0;bottom=0;right=0;editable=1;overflow=hidden;whiteSpace=wrap;html=1;strokeColor=#6c8ebf;shadow=1;" vertex="1" parent="ZDt4lYfHtHXYlEFiBq8j-22">
          <mxGeometry width="30" height="30" as="geometry">
            <mxRectangle width="30" height="30" as="alternateBounds" />
          </mxGeometry>
        </mxCell>
        <mxCell id="ZDt4lYfHtHXYlEFiBq8j-24" value="token" style="shape=partialRectangle;connectable=0;fillColor=#dae8fc;top=0;left=0;bottom=0;right=0;align=left;spacingLeft=6;overflow=hidden;whiteSpace=wrap;html=1;strokeColor=#6c8ebf;shadow=1;" vertex="1" parent="ZDt4lYfHtHXYlEFiBq8j-22">
          <mxGeometry x="30" width="210" height="30" as="geometry">
            <mxRectangle width="210" height="30" as="alternateBounds" />
          </mxGeometry>
        </mxCell>
        <mxCell id="ZDt4lYfHtHXYlEFiBq8j-25" value="" style="shape=tableRow;horizontal=0;startSize=0;swimlaneHead=0;swimlaneBody=0;fillColor=none;collapsible=0;dropTarget=0;points=[[0,0.5],[1,0.5]];portConstraint=eastwest;top=0;left=0;right=0;bottom=0;shadow=1;" vertex="1" parent="ZDt4lYfHtHXYlEFiBq8j-15">
          <mxGeometry y="120" width="240" height="30" as="geometry" />
        </mxCell>
        <mxCell id="ZDt4lYfHtHXYlEFiBq8j-26" value="" style="shape=partialRectangle;connectable=0;fillColor=#dae8fc;top=0;left=0;bottom=0;right=0;editable=1;overflow=hidden;whiteSpace=wrap;html=1;strokeColor=#6c8ebf;shadow=1;" vertex="1" parent="ZDt4lYfHtHXYlEFiBq8j-25">
          <mxGeometry width="30" height="30" as="geometry">
            <mxRectangle width="30" height="30" as="alternateBounds" />
          </mxGeometry>
        </mxCell>
        <mxCell id="ZDt4lYfHtHXYlEFiBq8j-27" value="token_created_at" style="shape=partialRectangle;connectable=0;fillColor=#dae8fc;top=0;left=0;bottom=0;right=0;align=left;spacingLeft=6;overflow=hidden;whiteSpace=wrap;html=1;strokeColor=#6c8ebf;shadow=1;" vertex="1" parent="ZDt4lYfHtHXYlEFiBq8j-25">
          <mxGeometry x="30" width="210" height="30" as="geometry">
            <mxRectangle width="210" height="30" as="alternateBounds" />
          </mxGeometry>
        </mxCell>
        <mxCell id="ZDt4lYfHtHXYlEFiBq8j-28" value="" style="shape=tableRow;horizontal=0;startSize=0;swimlaneHead=0;swimlaneBody=0;fillColor=none;collapsible=0;dropTarget=0;points=[[0,0.5],[1,0.5]];portConstraint=eastwest;top=0;left=0;right=0;bottom=0;shadow=1;" vertex="1" parent="ZDt4lYfHtHXYlEFiBq8j-15">
          <mxGeometry y="150" width="240" height="30" as="geometry" />
        </mxCell>
        <mxCell id="ZDt4lYfHtHXYlEFiBq8j-29" value="" style="shape=partialRectangle;connectable=0;fillColor=#dae8fc;top=0;left=0;bottom=0;right=0;editable=1;overflow=hidden;whiteSpace=wrap;html=1;strokeColor=#6c8ebf;shadow=1;" vertex="1" parent="ZDt4lYfHtHXYlEFiBq8j-28">
          <mxGeometry width="30" height="30" as="geometry">
            <mxRectangle width="30" height="30" as="alternateBounds" />
          </mxGeometry>
        </mxCell>
        <mxCell id="ZDt4lYfHtHXYlEFiBq8j-30" value="token_expires_at" style="shape=partialRectangle;connectable=0;fillColor=#dae8fc;top=0;left=0;bottom=0;right=0;align=left;spacingLeft=6;overflow=hidden;whiteSpace=wrap;html=1;strokeColor=#6c8ebf;shadow=1;" vertex="1" parent="ZDt4lYfHtHXYlEFiBq8j-28">
          <mxGeometry x="30" width="210" height="30" as="geometry">
            <mxRectangle width="210" height="30" as="alternateBounds" />
          </mxGeometry>
        </mxCell>
        <mxCell id="ZDt4lYfHtHXYlEFiBq8j-31" value="" style="shape=tableRow;horizontal=0;startSize=0;swimlaneHead=0;swimlaneBody=0;fillColor=none;collapsible=0;dropTarget=0;points=[[0,0.5],[1,0.5]];portConstraint=eastwest;top=0;left=0;right=0;bottom=0;shadow=1;" vertex="1" parent="ZDt4lYfHtHXYlEFiBq8j-15">
          <mxGeometry y="180" width="240" height="30" as="geometry" />
        </mxCell>
        <mxCell id="ZDt4lYfHtHXYlEFiBq8j-32" value="" style="shape=partialRectangle;connectable=0;fillColor=#dae8fc;top=0;left=0;bottom=0;right=0;editable=1;overflow=hidden;whiteSpace=wrap;html=1;strokeColor=#6c8ebf;shadow=1;" vertex="1" parent="ZDt4lYfHtHXYlEFiBq8j-31">
          <mxGeometry width="30" height="30" as="geometry">
            <mxRectangle width="30" height="30" as="alternateBounds" />
          </mxGeometry>
        </mxCell>
        <mxCell id="ZDt4lYfHtHXYlEFiBq8j-33" value="user_agent" style="shape=partialRectangle;connectable=0;fillColor=#dae8fc;top=0;left=0;bottom=0;right=0;align=left;spacingLeft=6;overflow=hidden;whiteSpace=wrap;html=1;strokeColor=#6c8ebf;shadow=1;" vertex="1" parent="ZDt4lYfHtHXYlEFiBq8j-31">
          <mxGeometry x="30" width="210" height="30" as="geometry">
            <mxRectangle width="210" height="30" as="alternateBounds" />
          </mxGeometry>
        </mxCell>
        <mxCell id="ZDt4lYfHtHXYlEFiBq8j-34" value="" style="shape=tableRow;horizontal=0;startSize=0;swimlaneHead=0;swimlaneBody=0;fillColor=none;collapsible=0;dropTarget=0;points=[[0,0.5],[1,0.5]];portConstraint=eastwest;top=0;left=0;right=0;bottom=0;shadow=1;" vertex="1" parent="ZDt4lYfHtHXYlEFiBq8j-15">
          <mxGeometry y="210" width="240" height="30" as="geometry" />
        </mxCell>
        <mxCell id="ZDt4lYfHtHXYlEFiBq8j-35" value="" style="shape=partialRectangle;connectable=0;fillColor=#dae8fc;top=0;left=0;bottom=0;right=0;editable=1;overflow=hidden;strokeColor=#6c8ebf;shadow=1;" vertex="1" parent="ZDt4lYfHtHXYlEFiBq8j-34">
          <mxGeometry width="30" height="30" as="geometry">
            <mxRectangle width="30" height="30" as="alternateBounds" />
          </mxGeometry>
        </mxCell>
        <mxCell id="ZDt4lYfHtHXYlEFiBq8j-36" value="created_at" style="shape=partialRectangle;connectable=0;fillColor=#dae8fc;top=0;left=0;bottom=0;right=0;align=left;spacingLeft=6;overflow=hidden;strokeColor=#6c8ebf;shadow=1;" vertex="1" parent="ZDt4lYfHtHXYlEFiBq8j-34">
          <mxGeometry x="30" width="210" height="30" as="geometry">
            <mxRectangle width="210" height="30" as="alternateBounds" />
          </mxGeometry>
        </mxCell>
        <mxCell id="ZDt4lYfHtHXYlEFiBq8j-37" value="" style="shape=tableRow;horizontal=0;startSize=0;swimlaneHead=0;swimlaneBody=0;fillColor=none;collapsible=0;dropTarget=0;points=[[0,0.5],[1,0.5]];portConstraint=eastwest;top=0;left=0;right=0;bottom=0;shadow=1;" vertex="1" parent="ZDt4lYfHtHXYlEFiBq8j-15">
          <mxGeometry y="240" width="240" height="30" as="geometry" />
        </mxCell>
        <mxCell id="ZDt4lYfHtHXYlEFiBq8j-38" value="" style="shape=partialRectangle;connectable=0;fillColor=#dae8fc;top=0;left=0;bottom=0;right=0;editable=1;overflow=hidden;strokeColor=#6c8ebf;shadow=1;" vertex="1" parent="ZDt4lYfHtHXYlEFiBq8j-37">
          <mxGeometry width="30" height="30" as="geometry">
            <mxRectangle width="30" height="30" as="alternateBounds" />
          </mxGeometry>
        </mxCell>
        <mxCell id="ZDt4lYfHtHXYlEFiBq8j-39" value="updated_at" style="shape=partialRectangle;connectable=0;fillColor=#dae8fc;top=0;left=0;bottom=0;right=0;align=left;spacingLeft=6;overflow=hidden;strokeColor=#6c8ebf;shadow=1;" vertex="1" parent="ZDt4lYfHtHXYlEFiBq8j-37">
          <mxGeometry x="30" width="210" height="30" as="geometry">
            <mxRectangle width="210" height="30" as="alternateBounds" />
          </mxGeometry>
        </mxCell>
        <mxCell id="ZDt4lYfHtHXYlEFiBq8j-40" value="uuid" style="shape=partialRectangle;fillColor=none;align=left;verticalAlign=middle;strokeColor=none;spacingLeft=34;rotatable=0;points=[[0,0.5],[1,0.5]];portConstraint=eastwest;dropTarget=0;shadow=1;" vertex="1" parent="ZDt4lYfHtHXYlEFiBq8j-14">
          <mxGeometry x="140" y="30" width="90" height="30" as="geometry" />
        </mxCell>
        <mxCell id="ZDt4lYfHtHXYlEFiBq8j-41" value="" style="shape=partialRectangle;top=0;left=0;bottom=0;fillColor=none;stokeWidth=1;dashed=1;align=left;verticalAlign=middle;spacingLeft=4;spacingRight=4;overflow=hidden;rotatable=0;points=[];portConstraint=eastwest;part=1;shadow=1;" vertex="1" connectable="0" parent="ZDt4lYfHtHXYlEFiBq8j-40">
          <mxGeometry width="30" height="30" as="geometry" />
        </mxCell>
        <mxCell id="ZDt4lYfHtHXYlEFiBq8j-42" value="uuid" style="shape=partialRectangle;fillColor=none;align=left;verticalAlign=middle;strokeColor=none;spacingLeft=34;rotatable=0;points=[[0,0.5],[1,0.5]];portConstraint=eastwest;dropTarget=0;shadow=1;" vertex="1" parent="ZDt4lYfHtHXYlEFiBq8j-14">
          <mxGeometry x="140" y="60" width="90" height="30" as="geometry" />
        </mxCell>
        <mxCell id="ZDt4lYfHtHXYlEFiBq8j-43" value="" style="shape=partialRectangle;top=0;left=0;bottom=0;fillColor=none;stokeWidth=1;dashed=1;align=left;verticalAlign=middle;spacingLeft=4;spacingRight=4;overflow=hidden;rotatable=0;points=[];portConstraint=eastwest;part=1;shadow=1;" vertex="1" connectable="0" parent="ZDt4lYfHtHXYlEFiBq8j-42">
          <mxGeometry width="30" height="30" as="geometry" />
        </mxCell>
        <mxCell id="ZDt4lYfHtHXYlEFiBq8j-44" value="char" style="shape=partialRectangle;fillColor=none;align=left;verticalAlign=middle;strokeColor=none;spacingLeft=34;rotatable=0;points=[[0,0.5],[1,0.5]];portConstraint=eastwest;dropTarget=0;shadow=1;" vertex="1" parent="ZDt4lYfHtHXYlEFiBq8j-14">
          <mxGeometry x="140" y="90" width="90" height="30" as="geometry" />
        </mxCell>
        <mxCell id="ZDt4lYfHtHXYlEFiBq8j-45" value="" style="shape=partialRectangle;top=0;left=0;bottom=0;fillColor=none;stokeWidth=1;dashed=1;align=left;verticalAlign=middle;spacingLeft=4;spacingRight=4;overflow=hidden;rotatable=0;points=[];portConstraint=eastwest;part=1;shadow=1;" vertex="1" connectable="0" parent="ZDt4lYfHtHXYlEFiBq8j-44">
          <mxGeometry width="30" height="30" as="geometry" />
        </mxCell>
        <mxCell id="ZDt4lYfHtHXYlEFiBq8j-46" value="timestamp" style="shape=partialRectangle;fillColor=none;align=left;verticalAlign=middle;strokeColor=none;spacingLeft=34;rotatable=0;points=[[0,0.5],[1,0.5]];portConstraint=eastwest;dropTarget=0;shadow=1;" vertex="1" parent="ZDt4lYfHtHXYlEFiBq8j-14">
          <mxGeometry x="140" y="120" width="90" height="30" as="geometry" />
        </mxCell>
        <mxCell id="ZDt4lYfHtHXYlEFiBq8j-47" value="" style="shape=partialRectangle;top=0;left=0;bottom=0;fillColor=none;stokeWidth=1;dashed=1;align=left;verticalAlign=middle;spacingLeft=4;spacingRight=4;overflow=hidden;rotatable=0;points=[];portConstraint=eastwest;part=1;shadow=1;" vertex="1" connectable="0" parent="ZDt4lYfHtHXYlEFiBq8j-46">
          <mxGeometry width="30" height="30" as="geometry" />
        </mxCell>
        <mxCell id="ZDt4lYfHtHXYlEFiBq8j-48" value="timestamp" style="shape=partialRectangle;fillColor=none;align=left;verticalAlign=middle;strokeColor=none;spacingLeft=34;rotatable=0;points=[[0,0.5],[1,0.5]];portConstraint=eastwest;dropTarget=0;shadow=1;" vertex="1" parent="ZDt4lYfHtHXYlEFiBq8j-14">
          <mxGeometry x="140" y="150" width="90" height="30" as="geometry" />
        </mxCell>
        <mxCell id="ZDt4lYfHtHXYlEFiBq8j-49" value="" style="shape=partialRectangle;top=0;left=0;bottom=0;fillColor=none;stokeWidth=1;dashed=1;align=left;verticalAlign=middle;spacingLeft=4;spacingRight=4;overflow=hidden;rotatable=0;points=[];portConstraint=eastwest;part=1;shadow=1;" vertex="1" connectable="0" parent="ZDt4lYfHtHXYlEFiBq8j-48">
          <mxGeometry width="30" height="30" as="geometry" />
        </mxCell>
        <mxCell id="ZDt4lYfHtHXYlEFiBq8j-50" value="char" style="shape=partialRectangle;fillColor=none;align=left;verticalAlign=middle;strokeColor=none;spacingLeft=34;rotatable=0;points=[[0,0.5],[1,0.5]];portConstraint=eastwest;dropTarget=0;shadow=1;" vertex="1" parent="ZDt4lYfHtHXYlEFiBq8j-14">
          <mxGeometry x="140" y="180" width="90" height="30" as="geometry" />
        </mxCell>
        <mxCell id="ZDt4lYfHtHXYlEFiBq8j-51" value="" style="shape=partialRectangle;top=0;left=0;bottom=0;fillColor=none;stokeWidth=1;dashed=1;align=left;verticalAlign=middle;spacingLeft=4;spacingRight=4;overflow=hidden;rotatable=0;points=[];portConstraint=eastwest;part=1;shadow=1;" vertex="1" connectable="0" parent="ZDt4lYfHtHXYlEFiBq8j-50">
          <mxGeometry width="30" height="30" as="geometry" />
        </mxCell>
        <mxCell id="ZDt4lYfHtHXYlEFiBq8j-52" value="timestamp" style="shape=partialRectangle;fillColor=none;align=left;verticalAlign=middle;strokeColor=none;spacingLeft=34;rotatable=0;points=[[0,0.5],[1,0.5]];portConstraint=eastwest;dropTarget=0;shadow=1;" vertex="1" parent="ZDt4lYfHtHXYlEFiBq8j-14">
          <mxGeometry x="140" y="210" width="90" height="30" as="geometry" />
        </mxCell>
        <mxCell id="ZDt4lYfHtHXYlEFiBq8j-53" value="" style="shape=partialRectangle;top=0;left=0;bottom=0;fillColor=none;stokeWidth=1;dashed=1;align=left;verticalAlign=middle;spacingLeft=4;spacingRight=4;overflow=hidden;rotatable=0;points=[];portConstraint=eastwest;part=1;shadow=1;" vertex="1" connectable="0" parent="ZDt4lYfHtHXYlEFiBq8j-52">
          <mxGeometry width="30" height="30" as="geometry" />
        </mxCell>
        <mxCell id="ZDt4lYfHtHXYlEFiBq8j-54" value="timestamp" style="shape=partialRectangle;fillColor=none;align=left;verticalAlign=middle;strokeColor=none;spacingLeft=34;rotatable=0;points=[[0,0.5],[1,0.5]];portConstraint=eastwest;dropTarget=0;shadow=1;" vertex="1" parent="ZDt4lYfHtHXYlEFiBq8j-14">
          <mxGeometry x="140" y="240" width="90" height="30" as="geometry" />
        </mxCell>
        <mxCell id="ZDt4lYfHtHXYlEFiBq8j-55" value="" style="shape=partialRectangle;top=0;left=0;bottom=0;fillColor=none;stokeWidth=1;dashed=1;align=left;verticalAlign=middle;spacingLeft=4;spacingRight=4;overflow=hidden;rotatable=0;points=[];portConstraint=eastwest;part=1;shadow=1;" vertex="1" connectable="0" parent="ZDt4lYfHtHXYlEFiBq8j-54">
          <mxGeometry width="30" height="30" as="geometry" />
        </mxCell>
        <mxCell id="ZDt4lYfHtHXYlEFiBq8j-56" value="" style="group;shadow=1;" vertex="1" connectable="0" parent="1">
          <mxGeometry x="1360" y="490" width="240" height="180" as="geometry" />
        </mxCell>
        <mxCell id="ZDt4lYfHtHXYlEFiBq8j-57" value="Folder" style="shape=table;startSize=30;container=1;collapsible=1;childLayout=tableLayout;fixedRows=1;rowLines=0;fontStyle=1;align=center;resizeLast=1;html=1;fillColor=#ffe6cc;strokeColor=#d79b00;shadow=1;" vertex="1" parent="ZDt4lYfHtHXYlEFiBq8j-56">
          <mxGeometry width="240" height="180" as="geometry" />
        </mxCell>
        <mxCell id="ZDt4lYfHtHXYlEFiBq8j-58" value="" style="shape=tableRow;horizontal=0;startSize=0;swimlaneHead=0;swimlaneBody=0;fillColor=none;collapsible=0;dropTarget=0;points=[[0,0.5],[1,0.5]];portConstraint=eastwest;top=0;left=0;right=0;bottom=1;shadow=1;" vertex="1" parent="ZDt4lYfHtHXYlEFiBq8j-57">
          <mxGeometry y="30" width="240" height="30" as="geometry" />
        </mxCell>
        <mxCell id="ZDt4lYfHtHXYlEFiBq8j-59" value="PK" style="shape=partialRectangle;connectable=0;fillColor=#fff2cc;top=0;left=0;bottom=0;right=0;fontStyle=1;overflow=hidden;whiteSpace=wrap;html=1;strokeColor=#d6b656;shadow=1;" vertex="1" parent="ZDt4lYfHtHXYlEFiBq8j-58">
          <mxGeometry width="30" height="30" as="geometry">
            <mxRectangle width="30" height="30" as="alternateBounds" />
          </mxGeometry>
        </mxCell>
        <mxCell id="ZDt4lYfHtHXYlEFiBq8j-60" value="id" style="shape=partialRectangle;connectable=0;fillColor=#fff2cc;top=0;left=0;bottom=0;right=0;align=left;spacingLeft=6;fontStyle=5;overflow=hidden;whiteSpace=wrap;html=1;strokeColor=#d6b656;shadow=1;" vertex="1" parent="ZDt4lYfHtHXYlEFiBq8j-58">
          <mxGeometry x="30" width="210" height="30" as="geometry">
            <mxRectangle width="210" height="30" as="alternateBounds" />
          </mxGeometry>
        </mxCell>
        <mxCell id="ZDt4lYfHtHXYlEFiBq8j-61" value="" style="shape=tableRow;horizontal=0;startSize=0;swimlaneHead=0;swimlaneBody=0;fillColor=none;collapsible=0;dropTarget=0;points=[[0,0.5],[1,0.5]];portConstraint=eastwest;top=0;left=0;right=0;bottom=0;shadow=1;" vertex="1" parent="ZDt4lYfHtHXYlEFiBq8j-57">
          <mxGeometry y="60" width="240" height="30" as="geometry" />
        </mxCell>
        <mxCell id="ZDt4lYfHtHXYlEFiBq8j-62" value="FK" style="shape=partialRectangle;connectable=0;fillColor=#dae8fc;top=0;left=0;bottom=0;right=0;fontStyle=0;overflow=hidden;whiteSpace=wrap;html=1;strokeColor=#6c8ebf;shadow=1;" vertex="1" parent="ZDt4lYfHtHXYlEFiBq8j-61">
          <mxGeometry width="30" height="30" as="geometry">
            <mxRectangle width="30" height="30" as="alternateBounds" />
          </mxGeometry>
        </mxCell>
        <mxCell id="ZDt4lYfHtHXYlEFiBq8j-63" value="owner_user_id" style="shape=partialRectangle;connectable=0;fillColor=#dae8fc;top=0;left=0;bottom=0;right=0;align=left;spacingLeft=6;fontStyle=0;overflow=hidden;whiteSpace=wrap;html=1;strokeColor=#6c8ebf;shadow=1;" vertex="1" parent="ZDt4lYfHtHXYlEFiBq8j-61">
          <mxGeometry x="30" width="210" height="30" as="geometry">
            <mxRectangle width="210" height="30" as="alternateBounds" />
          </mxGeometry>
        </mxCell>
        <mxCell id="ZDt4lYfHtHXYlEFiBq8j-64" value="" style="shape=tableRow;horizontal=0;startSize=0;swimlaneHead=0;swimlaneBody=0;fillColor=none;collapsible=0;dropTarget=0;points=[[0,0.5],[1,0.5]];portConstraint=eastwest;top=0;left=0;right=0;bottom=0;shadow=1;" vertex="1" parent="ZDt4lYfHtHXYlEFiBq8j-57">
          <mxGeometry y="90" width="240" height="30" as="geometry" />
        </mxCell>
        <mxCell id="ZDt4lYfHtHXYlEFiBq8j-65" value="" style="shape=partialRectangle;connectable=0;fillColor=#dae8fc;top=0;left=0;bottom=0;right=0;editable=1;overflow=hidden;whiteSpace=wrap;html=1;strokeColor=#6c8ebf;shadow=1;" vertex="1" parent="ZDt4lYfHtHXYlEFiBq8j-64">
          <mxGeometry width="30" height="30" as="geometry">
            <mxRectangle width="30" height="30" as="alternateBounds" />
          </mxGeometry>
        </mxCell>
        <mxCell id="ZDt4lYfHtHXYlEFiBq8j-66" value="name" style="shape=partialRectangle;connectable=0;fillColor=#dae8fc;top=0;left=0;bottom=0;right=0;align=left;spacingLeft=6;overflow=hidden;whiteSpace=wrap;html=1;strokeColor=#6c8ebf;shadow=1;" vertex="1" parent="ZDt4lYfHtHXYlEFiBq8j-64">
          <mxGeometry x="30" width="210" height="30" as="geometry">
            <mxRectangle width="210" height="30" as="alternateBounds" />
          </mxGeometry>
        </mxCell>
        <mxCell id="ZDt4lYfHtHXYlEFiBq8j-67" value="" style="shape=tableRow;horizontal=0;startSize=0;swimlaneHead=0;swimlaneBody=0;fillColor=none;collapsible=0;dropTarget=0;points=[[0,0.5],[1,0.5]];portConstraint=eastwest;top=0;left=0;right=0;bottom=0;shadow=1;" vertex="1" parent="ZDt4lYfHtHXYlEFiBq8j-57">
          <mxGeometry y="120" width="240" height="30" as="geometry" />
        </mxCell>
        <mxCell id="ZDt4lYfHtHXYlEFiBq8j-68" value="" style="shape=partialRectangle;connectable=0;fillColor=#dae8fc;top=0;left=0;bottom=0;right=0;editable=1;overflow=hidden;strokeColor=#6c8ebf;shadow=1;" vertex="1" parent="ZDt4lYfHtHXYlEFiBq8j-67">
          <mxGeometry width="30" height="30" as="geometry">
            <mxRectangle width="30" height="30" as="alternateBounds" />
          </mxGeometry>
        </mxCell>
        <mxCell id="ZDt4lYfHtHXYlEFiBq8j-69" value="created_at" style="shape=partialRectangle;connectable=0;fillColor=#dae8fc;top=0;left=0;bottom=0;right=0;align=left;spacingLeft=6;overflow=hidden;strokeColor=#6c8ebf;shadow=1;" vertex="1" parent="ZDt4lYfHtHXYlEFiBq8j-67">
          <mxGeometry x="30" width="210" height="30" as="geometry">
            <mxRectangle width="210" height="30" as="alternateBounds" />
          </mxGeometry>
        </mxCell>
        <mxCell id="ZDt4lYfHtHXYlEFiBq8j-70" value="" style="shape=tableRow;horizontal=0;startSize=0;swimlaneHead=0;swimlaneBody=0;fillColor=none;collapsible=0;dropTarget=0;points=[[0,0.5],[1,0.5]];portConstraint=eastwest;top=0;left=0;right=0;bottom=0;shadow=1;" vertex="1" parent="ZDt4lYfHtHXYlEFiBq8j-57">
          <mxGeometry y="150" width="240" height="30" as="geometry" />
        </mxCell>
        <mxCell id="ZDt4lYfHtHXYlEFiBq8j-71" value="" style="shape=partialRectangle;connectable=0;fillColor=#dae8fc;top=0;left=0;bottom=0;right=0;editable=1;overflow=hidden;strokeColor=#6c8ebf;shadow=1;" vertex="1" parent="ZDt4lYfHtHXYlEFiBq8j-70">
          <mxGeometry width="30" height="30" as="geometry">
            <mxRectangle width="30" height="30" as="alternateBounds" />
          </mxGeometry>
        </mxCell>
        <mxCell id="ZDt4lYfHtHXYlEFiBq8j-72" value="updated_at" style="shape=partialRectangle;connectable=0;fillColor=#dae8fc;top=0;left=0;bottom=0;right=0;align=left;spacingLeft=6;overflow=hidden;strokeColor=#6c8ebf;shadow=1;" vertex="1" parent="ZDt4lYfHtHXYlEFiBq8j-70">
          <mxGeometry x="30" width="210" height="30" as="geometry">
            <mxRectangle width="210" height="30" as="alternateBounds" />
          </mxGeometry>
        </mxCell>
        <mxCell id="ZDt4lYfHtHXYlEFiBq8j-73" value="varchar" style="shape=partialRectangle;fillColor=none;align=left;verticalAlign=middle;strokeColor=none;spacingLeft=34;rotatable=0;points=[[0,0.5],[1,0.5]];portConstraint=eastwest;dropTarget=0;shadow=1;" vertex="1" parent="ZDt4lYfHtHXYlEFiBq8j-56">
          <mxGeometry x="140" y="90" width="90" height="30" as="geometry" />
        </mxCell>
        <mxCell id="ZDt4lYfHtHXYlEFiBq8j-74" value="" style="shape=partialRectangle;top=0;left=0;bottom=0;fillColor=none;stokeWidth=1;dashed=1;align=left;verticalAlign=middle;spacingLeft=4;spacingRight=4;overflow=hidden;rotatable=0;points=[];portConstraint=eastwest;part=1;shadow=1;" vertex="1" connectable="0" parent="ZDt4lYfHtHXYlEFiBq8j-73">
          <mxGeometry width="30" height="30" as="geometry" />
        </mxCell>
        <mxCell id="ZDt4lYfHtHXYlEFiBq8j-75" value="uuid" style="shape=partialRectangle;fillColor=none;align=left;verticalAlign=middle;strokeColor=none;spacingLeft=34;rotatable=0;points=[[0,0.5],[1,0.5]];portConstraint=eastwest;dropTarget=0;shadow=1;" vertex="1" parent="ZDt4lYfHtHXYlEFiBq8j-56">
          <mxGeometry x="140" y="30" width="90" height="30" as="geometry" />
        </mxCell>
        <mxCell id="ZDt4lYfHtHXYlEFiBq8j-76" value="" style="shape=partialRectangle;top=0;left=0;bottom=0;fillColor=none;stokeWidth=1;dashed=1;align=left;verticalAlign=middle;spacingLeft=4;spacingRight=4;overflow=hidden;rotatable=0;points=[];portConstraint=eastwest;part=1;shadow=1;" vertex="1" connectable="0" parent="ZDt4lYfHtHXYlEFiBq8j-75">
          <mxGeometry width="30" height="30" as="geometry" />
        </mxCell>
        <mxCell id="ZDt4lYfHtHXYlEFiBq8j-77" value="uuid" style="shape=partialRectangle;fillColor=none;align=left;verticalAlign=middle;strokeColor=none;spacingLeft=34;rotatable=0;points=[[0,0.5],[1,0.5]];portConstraint=eastwest;dropTarget=0;shadow=1;" vertex="1" parent="ZDt4lYfHtHXYlEFiBq8j-56">
          <mxGeometry x="140" y="60" width="90" height="30" as="geometry" />
        </mxCell>
        <mxCell id="ZDt4lYfHtHXYlEFiBq8j-78" value="" style="shape=partialRectangle;top=0;left=0;bottom=0;fillColor=none;stokeWidth=1;dashed=1;align=left;verticalAlign=middle;spacingLeft=4;spacingRight=4;overflow=hidden;rotatable=0;points=[];portConstraint=eastwest;part=1;shadow=1;" vertex="1" connectable="0" parent="ZDt4lYfHtHXYlEFiBq8j-77">
          <mxGeometry width="30" height="30" as="geometry" />
        </mxCell>
        <mxCell id="ZDt4lYfHtHXYlEFiBq8j-79" value="timestamp" style="shape=partialRectangle;fillColor=none;align=left;verticalAlign=middle;strokeColor=none;spacingLeft=34;rotatable=0;points=[[0,0.5],[1,0.5]];portConstraint=eastwest;dropTarget=0;shadow=1;" vertex="1" parent="ZDt4lYfHtHXYlEFiBq8j-56">
          <mxGeometry x="140" y="120" width="90" height="30" as="geometry" />
        </mxCell>
        <mxCell id="ZDt4lYfHtHXYlEFiBq8j-80" value="" style="shape=partialRectangle;top=0;left=0;bottom=0;fillColor=none;stokeWidth=1;dashed=1;align=left;verticalAlign=middle;spacingLeft=4;spacingRight=4;overflow=hidden;rotatable=0;points=[];portConstraint=eastwest;part=1;shadow=1;" vertex="1" connectable="0" parent="ZDt4lYfHtHXYlEFiBq8j-79">
          <mxGeometry width="30" height="30" as="geometry" />
        </mxCell>
        <mxCell id="ZDt4lYfHtHXYlEFiBq8j-81" value="timestamp" style="shape=partialRectangle;fillColor=none;align=left;verticalAlign=middle;strokeColor=none;spacingLeft=34;rotatable=0;points=[[0,0.5],[1,0.5]];portConstraint=eastwest;dropTarget=0;shadow=1;" vertex="1" parent="ZDt4lYfHtHXYlEFiBq8j-56">
          <mxGeometry x="140" y="150" width="90" height="30" as="geometry" />
        </mxCell>
        <mxCell id="ZDt4lYfHtHXYlEFiBq8j-82" value="" style="shape=partialRectangle;top=0;left=0;bottom=0;fillColor=none;stokeWidth=1;dashed=1;align=left;verticalAlign=middle;spacingLeft=4;spacingRight=4;overflow=hidden;rotatable=0;points=[];portConstraint=eastwest;part=1;shadow=1;" vertex="1" connectable="0" parent="ZDt4lYfHtHXYlEFiBq8j-81">
          <mxGeometry width="30" height="30" as="geometry" />
        </mxCell>
        <mxCell id="ZDt4lYfHtHXYlEFiBq8j-83" value="" style="group;shadow=1;" vertex="1" connectable="0" parent="1">
          <mxGeometry x="840" y="60" width="290" height="390" as="geometry" />
        </mxCell>
        <mxCell id="ZDt4lYfHtHXYlEFiBq8j-84" value="" style="shape=tableRow;horizontal=0;startSize=0;swimlaneHead=0;swimlaneBody=0;fillColor=none;collapsible=0;dropTarget=0;points=[[0,0.5],[1,0.5]];portConstraint=eastwest;top=0;left=0;right=0;bottom=0;shadow=1;" vertex="1" parent="ZDt4lYfHtHXYlEFiBq8j-83">
          <mxGeometry x="100" y="190" width="180" height="30" as="geometry" />
        </mxCell>
        <mxCell id="ZDt4lYfHtHXYlEFiBq8j-85" value="" style="shape=partialRectangle;connectable=0;fillColor=none;top=0;left=0;bottom=0;right=0;editable=1;overflow=hidden;whiteSpace=wrap;html=1;shadow=1;" vertex="1" parent="ZDt4lYfHtHXYlEFiBq8j-84">
          <mxGeometry width="30" height="30" as="geometry">
            <mxRectangle width="30" height="30" as="alternateBounds" />
          </mxGeometry>
        </mxCell>
        <mxCell id="ZDt4lYfHtHXYlEFiBq8j-86" value="Users" style="shape=table;startSize=30;container=1;collapsible=1;childLayout=tableLayout;fixedRows=1;rowLines=0;fontStyle=1;align=center;resizeLast=1;html=1;fillColor=#ffe6cc;strokeColor=#d79b00;shadow=1;" vertex="1" parent="ZDt4lYfHtHXYlEFiBq8j-83">
          <mxGeometry width="290" height="390" as="geometry" />
        </mxCell>
        <mxCell id="ZDt4lYfHtHXYlEFiBq8j-87" value="" style="shape=tableRow;horizontal=0;startSize=0;swimlaneHead=0;swimlaneBody=0;fillColor=none;collapsible=0;dropTarget=0;points=[[0,0.5],[1,0.5]];portConstraint=eastwest;top=0;left=0;right=0;bottom=1;shadow=1;" vertex="1" parent="ZDt4lYfHtHXYlEFiBq8j-86">
          <mxGeometry y="30" width="290" height="30" as="geometry" />
        </mxCell>
        <mxCell id="ZDt4lYfHtHXYlEFiBq8j-88" value="PK" style="shape=partialRectangle;connectable=0;fillColor=#fff2cc;top=0;left=0;bottom=0;right=0;fontStyle=1;overflow=hidden;whiteSpace=wrap;html=1;strokeColor=#d6b656;shadow=1;" vertex="1" parent="ZDt4lYfHtHXYlEFiBq8j-87">
          <mxGeometry width="30" height="30" as="geometry">
            <mxRectangle width="30" height="30" as="alternateBounds" />
          </mxGeometry>
        </mxCell>
        <mxCell id="ZDt4lYfHtHXYlEFiBq8j-89" value="id" style="shape=partialRectangle;connectable=0;fillColor=#fff2cc;top=0;left=0;bottom=0;right=0;align=left;spacingLeft=6;fontStyle=5;overflow=hidden;whiteSpace=wrap;html=1;strokeColor=#d6b656;shadow=1;" vertex="1" parent="ZDt4lYfHtHXYlEFiBq8j-87">
          <mxGeometry x="30" width="260" height="30" as="geometry">
            <mxRectangle width="260" height="30" as="alternateBounds" />
          </mxGeometry>
        </mxCell>
        <mxCell id="ZDt4lYfHtHXYlEFiBq8j-90" value="" style="shape=tableRow;horizontal=0;startSize=0;swimlaneHead=0;swimlaneBody=0;fillColor=none;collapsible=0;dropTarget=0;points=[[0,0.5],[1,0.5]];portConstraint=eastwest;top=0;left=0;right=0;bottom=0;shadow=1;" vertex="1" parent="ZDt4lYfHtHXYlEFiBq8j-86">
          <mxGeometry y="60" width="290" height="30" as="geometry" />
        </mxCell>
        <mxCell id="ZDt4lYfHtHXYlEFiBq8j-91" value="" style="shape=partialRectangle;connectable=0;fillColor=#dae8fc;top=0;left=0;bottom=0;right=0;editable=1;overflow=hidden;whiteSpace=wrap;html=1;strokeColor=#6c8ebf;shadow=1;" vertex="1" parent="ZDt4lYfHtHXYlEFiBq8j-90">
          <mxGeometry width="30" height="30" as="geometry">
            <mxRectangle width="30" height="30" as="alternateBounds" />
          </mxGeometry>
        </mxCell>
        <mxCell id="ZDt4lYfHtHXYlEFiBq8j-92" value="username" style="shape=partialRectangle;connectable=0;fillColor=#dae8fc;top=0;left=0;bottom=0;right=0;align=left;spacingLeft=6;overflow=hidden;whiteSpace=wrap;html=1;strokeColor=#6c8ebf;shadow=1;" vertex="1" parent="ZDt4lYfHtHXYlEFiBq8j-90">
          <mxGeometry x="30" width="260" height="30" as="geometry">
            <mxRectangle width="260" height="30" as="alternateBounds" />
          </mxGeometry>
        </mxCell>
        <mxCell id="ZDt4lYfHtHXYlEFiBq8j-93" value="" style="shape=tableRow;horizontal=0;startSize=0;swimlaneHead=0;swimlaneBody=0;fillColor=none;collapsible=0;dropTarget=0;points=[[0,0.5],[1,0.5]];portConstraint=eastwest;top=0;left=0;right=0;bottom=0;shadow=1;" vertex="1" parent="ZDt4lYfHtHXYlEFiBq8j-86">
          <mxGeometry y="90" width="290" height="30" as="geometry" />
        </mxCell>
        <mxCell id="ZDt4lYfHtHXYlEFiBq8j-94" value="" style="shape=partialRectangle;connectable=0;fillColor=#dae8fc;top=0;left=0;bottom=0;right=0;editable=1;overflow=hidden;whiteSpace=wrap;html=1;strokeColor=#6c8ebf;shadow=1;" vertex="1" parent="ZDt4lYfHtHXYlEFiBq8j-93">
          <mxGeometry width="30" height="30" as="geometry">
            <mxRectangle width="30" height="30" as="alternateBounds" />
          </mxGeometry>
        </mxCell>
        <mxCell id="ZDt4lYfHtHXYlEFiBq8j-95" value="name" style="shape=partialRectangle;connectable=0;fillColor=#dae8fc;top=0;left=0;bottom=0;right=0;align=left;spacingLeft=6;overflow=hidden;whiteSpace=wrap;html=1;strokeColor=#6c8ebf;shadow=1;" vertex="1" parent="ZDt4lYfHtHXYlEFiBq8j-93">
          <mxGeometry x="30" width="260" height="30" as="geometry">
            <mxRectangle width="260" height="30" as="alternateBounds" />
          </mxGeometry>
        </mxCell>
        <mxCell id="ZDt4lYfHtHXYlEFiBq8j-96" value="" style="shape=tableRow;horizontal=0;startSize=0;swimlaneHead=0;swimlaneBody=0;fillColor=none;collapsible=0;dropTarget=0;points=[[0,0.5],[1,0.5]];portConstraint=eastwest;top=0;left=0;right=0;bottom=0;shadow=1;" vertex="1" parent="ZDt4lYfHtHXYlEFiBq8j-86">
          <mxGeometry y="120" width="290" height="30" as="geometry" />
        </mxCell>
        <mxCell id="ZDt4lYfHtHXYlEFiBq8j-97" value="" style="shape=partialRectangle;connectable=0;fillColor=#dae8fc;top=0;left=0;bottom=0;right=0;editable=1;overflow=hidden;whiteSpace=wrap;html=1;strokeColor=#6c8ebf;shadow=1;" vertex="1" parent="ZDt4lYfHtHXYlEFiBq8j-96">
          <mxGeometry width="30" height="30" as="geometry">
            <mxRectangle width="30" height="30" as="alternateBounds" />
          </mxGeometry>
        </mxCell>
        <mxCell id="ZDt4lYfHtHXYlEFiBq8j-98" value="master_password" style="shape=partialRectangle;connectable=0;fillColor=#dae8fc;top=0;left=0;bottom=0;right=0;align=left;spacingLeft=6;overflow=hidden;whiteSpace=wrap;html=1;strokeColor=#6c8ebf;shadow=1;" vertex="1" parent="ZDt4lYfHtHXYlEFiBq8j-96">
          <mxGeometry x="30" width="260" height="30" as="geometry">
            <mxRectangle width="260" height="30" as="alternateBounds" />
          </mxGeometry>
        </mxCell>
        <mxCell id="ZDt4lYfHtHXYlEFiBq8j-99" value="" style="shape=tableRow;horizontal=0;startSize=0;swimlaneHead=0;swimlaneBody=0;fillColor=none;collapsible=0;dropTarget=0;points=[[0,0.5],[1,0.5]];portConstraint=eastwest;top=0;left=0;right=0;bottom=0;shadow=1;" vertex="1" parent="ZDt4lYfHtHXYlEFiBq8j-86">
          <mxGeometry y="150" width="290" height="30" as="geometry" />
        </mxCell>
        <mxCell id="ZDt4lYfHtHXYlEFiBq8j-100" value="" style="shape=partialRectangle;connectable=0;fillColor=#dae8fc;top=0;left=0;bottom=0;right=0;editable=1;overflow=hidden;strokeColor=#6c8ebf;shadow=1;" vertex="1" parent="ZDt4lYfHtHXYlEFiBq8j-99">
          <mxGeometry width="30" height="30" as="geometry">
            <mxRectangle width="30" height="30" as="alternateBounds" />
          </mxGeometry>
        </mxCell>
        <mxCell id="ZDt4lYfHtHXYlEFiBq8j-101" value="master_password_updated_at" style="shape=partialRectangle;connectable=0;fillColor=#dae8fc;top=0;left=0;bottom=0;right=0;align=left;spacingLeft=6;overflow=hidden;strokeColor=#6c8ebf;shadow=1;" vertex="1" parent="ZDt4lYfHtHXYlEFiBq8j-99">
          <mxGeometry x="30" width="260" height="30" as="geometry">
            <mxRectangle width="260" height="30" as="alternateBounds" />
          </mxGeometry>
        </mxCell>
        <mxCell id="ZDt4lYfHtHXYlEFiBq8j-102" value="" style="shape=tableRow;horizontal=0;startSize=0;swimlaneHead=0;swimlaneBody=0;fillColor=none;collapsible=0;dropTarget=0;points=[[0,0.5],[1,0.5]];portConstraint=eastwest;top=0;left=0;right=0;bottom=0;shadow=1;" vertex="1" parent="ZDt4lYfHtHXYlEFiBq8j-86">
          <mxGeometry y="180" width="290" height="30" as="geometry" />
        </mxCell>
        <mxCell id="ZDt4lYfHtHXYlEFiBq8j-103" value="" style="shape=partialRectangle;connectable=0;fillColor=#dae8fc;top=0;left=0;bottom=0;right=0;editable=1;overflow=hidden;strokeColor=#6c8ebf;shadow=1;" vertex="1" parent="ZDt4lYfHtHXYlEFiBq8j-102">
          <mxGeometry width="30" height="30" as="geometry">
            <mxRectangle width="30" height="30" as="alternateBounds" />
          </mxGeometry>
        </mxCell>
        <mxCell id="ZDt4lYfHtHXYlEFiBq8j-104" value="recuperation_code" style="shape=partialRectangle;connectable=0;fillColor=#dae8fc;top=0;left=0;bottom=0;right=0;align=left;spacingLeft=6;overflow=hidden;strokeColor=#6c8ebf;shadow=1;" vertex="1" parent="ZDt4lYfHtHXYlEFiBq8j-102">
          <mxGeometry x="30" width="260" height="30" as="geometry">
            <mxRectangle width="260" height="30" as="alternateBounds" />
          </mxGeometry>
        </mxCell>
        <mxCell id="ZDt4lYfHtHXYlEFiBq8j-105" value="" style="shape=tableRow;horizontal=0;startSize=0;swimlaneHead=0;swimlaneBody=0;fillColor=none;collapsible=0;dropTarget=0;points=[[0,0.5],[1,0.5]];portConstraint=eastwest;top=0;left=0;right=0;bottom=0;shadow=1;" vertex="1" parent="ZDt4lYfHtHXYlEFiBq8j-86">
          <mxGeometry y="210" width="290" height="30" as="geometry" />
        </mxCell>
        <mxCell id="ZDt4lYfHtHXYlEFiBq8j-106" value="" style="shape=partialRectangle;connectable=0;fillColor=#dae8fc;top=0;left=0;bottom=0;right=0;editable=1;overflow=hidden;strokeColor=#6c8ebf;shadow=1;" vertex="1" parent="ZDt4lYfHtHXYlEFiBq8j-105">
          <mxGeometry width="30" height="30" as="geometry">
            <mxRectangle width="30" height="30" as="alternateBounds" />
          </mxGeometry>
        </mxCell>
        <mxCell id="ZDt4lYfHtHXYlEFiBq8j-107" value="recuperation_code_updated_at" style="shape=partialRectangle;connectable=0;fillColor=#dae8fc;top=0;left=0;bottom=0;right=0;align=left;spacingLeft=6;overflow=hidden;strokeColor=#6c8ebf;shadow=1;" vertex="1" parent="ZDt4lYfHtHXYlEFiBq8j-105">
          <mxGeometry x="30" width="260" height="30" as="geometry">
            <mxRectangle width="260" height="30" as="alternateBounds" />
          </mxGeometry>
        </mxCell>
        <mxCell id="ZDt4lYfHtHXYlEFiBq8j-108" value="" style="shape=tableRow;horizontal=0;startSize=0;swimlaneHead=0;swimlaneBody=0;fillColor=none;collapsible=0;dropTarget=0;points=[[0,0.5],[1,0.5]];portConstraint=eastwest;top=0;left=0;right=0;bottom=0;shadow=1;" vertex="1" parent="ZDt4lYfHtHXYlEFiBq8j-86">
          <mxGeometry y="240" width="290" height="30" as="geometry" />
        </mxCell>
        <mxCell id="ZDt4lYfHtHXYlEFiBq8j-109" value="" style="shape=partialRectangle;connectable=0;fillColor=#dae8fc;top=0;left=0;bottom=0;right=0;editable=1;overflow=hidden;strokeColor=#6c8ebf;shadow=1;" vertex="1" parent="ZDt4lYfHtHXYlEFiBq8j-108">
          <mxGeometry width="30" height="30" as="geometry">
            <mxRectangle width="30" height="30" as="alternateBounds" />
          </mxGeometry>
        </mxCell>
        <mxCell id="ZDt4lYfHtHXYlEFiBq8j-110" value="totp_2fa_secret" style="shape=partialRectangle;connectable=0;fillColor=#dae8fc;top=0;left=0;bottom=0;right=0;align=left;spacingLeft=6;overflow=hidden;strokeColor=#6c8ebf;shadow=1;" vertex="1" parent="ZDt4lYfHtHXYlEFiBq8j-108">
          <mxGeometry x="30" width="260" height="30" as="geometry">
            <mxRectangle width="260" height="30" as="alternateBounds" />
          </mxGeometry>
        </mxCell>
        <mxCell id="ZDt4lYfHtHXYlEFiBq8j-224" value="" style="shape=tableRow;horizontal=0;startSize=0;swimlaneHead=0;swimlaneBody=0;fillColor=none;collapsible=0;dropTarget=0;points=[[0,0.5],[1,0.5]];portConstraint=eastwest;top=0;left=0;right=0;bottom=0;shadow=1;" vertex="1" parent="ZDt4lYfHtHXYlEFiBq8j-86">
          <mxGeometry y="270" width="290" height="30" as="geometry" />
        </mxCell>
        <mxCell id="ZDt4lYfHtHXYlEFiBq8j-225" value="" style="shape=partialRectangle;connectable=0;fillColor=#dae8fc;top=0;left=0;bottom=0;right=0;editable=1;overflow=hidden;strokeColor=#6c8ebf;shadow=1;" vertex="1" parent="ZDt4lYfHtHXYlEFiBq8j-224">
          <mxGeometry width="30" height="30" as="geometry">
            <mxRectangle width="30" height="30" as="alternateBounds" />
          </mxGeometry>
        </mxCell>
        <mxCell id="ZDt4lYfHtHXYlEFiBq8j-226" value="totp_2fa_activated" style="shape=partialRectangle;connectable=0;fillColor=#dae8fc;top=0;left=0;bottom=0;right=0;align=left;spacingLeft=6;overflow=hidden;strokeColor=#6c8ebf;shadow=1;" vertex="1" parent="ZDt4lYfHtHXYlEFiBq8j-224">
          <mxGeometry x="30" width="260" height="30" as="geometry">
            <mxRectangle width="260" height="30" as="alternateBounds" />
          </mxGeometry>
        </mxCell>
        <mxCell id="ZDt4lYfHtHXYlEFiBq8j-221" value="" style="shape=tableRow;horizontal=0;startSize=0;swimlaneHead=0;swimlaneBody=0;fillColor=none;collapsible=0;dropTarget=0;points=[[0,0.5],[1,0.5]];portConstraint=eastwest;top=0;left=0;right=0;bottom=0;shadow=1;" vertex="1" parent="ZDt4lYfHtHXYlEFiBq8j-86">
          <mxGeometry y="300" width="290" height="30" as="geometry" />
        </mxCell>
        <mxCell id="ZDt4lYfHtHXYlEFiBq8j-222" value="" style="shape=partialRectangle;connectable=0;fillColor=#dae8fc;top=0;left=0;bottom=0;right=0;editable=1;overflow=hidden;strokeColor=#6c8ebf;shadow=1;" vertex="1" parent="ZDt4lYfHtHXYlEFiBq8j-221">
          <mxGeometry width="30" height="30" as="geometry">
            <mxRectangle width="30" height="30" as="alternateBounds" />
          </mxGeometry>
        </mxCell>
        <mxCell id="ZDt4lYfHtHXYlEFiBq8j-223" value="totp_2fa_activated_at" style="shape=partialRectangle;connectable=0;fillColor=#dae8fc;top=0;left=0;bottom=0;right=0;align=left;spacingLeft=6;overflow=hidden;strokeColor=#6c8ebf;shadow=1;" vertex="1" parent="ZDt4lYfHtHXYlEFiBq8j-221">
          <mxGeometry x="30" width="260" height="30" as="geometry">
            <mxRectangle width="260" height="30" as="alternateBounds" />
          </mxGeometry>
        </mxCell>
        <mxCell id="ZDt4lYfHtHXYlEFiBq8j-111" value="" style="shape=tableRow;horizontal=0;startSize=0;swimlaneHead=0;swimlaneBody=0;fillColor=none;collapsible=0;dropTarget=0;points=[[0,0.5],[1,0.5]];portConstraint=eastwest;top=0;left=0;right=0;bottom=0;shadow=1;" vertex="1" parent="ZDt4lYfHtHXYlEFiBq8j-86">
          <mxGeometry y="330" width="290" height="30" as="geometry" />
        </mxCell>
        <mxCell id="ZDt4lYfHtHXYlEFiBq8j-112" value="" style="shape=partialRectangle;connectable=0;fillColor=#dae8fc;top=0;left=0;bottom=0;right=0;editable=1;overflow=hidden;strokeColor=#6c8ebf;shadow=1;" vertex="1" parent="ZDt4lYfHtHXYlEFiBq8j-111">
          <mxGeometry width="30" height="30" as="geometry">
            <mxRectangle width="30" height="30" as="alternateBounds" />
          </mxGeometry>
        </mxCell>
        <mxCell id="ZDt4lYfHtHXYlEFiBq8j-113" value="created_at" style="shape=partialRectangle;connectable=0;fillColor=#dae8fc;top=0;left=0;bottom=0;right=0;align=left;spacingLeft=6;overflow=hidden;strokeColor=#6c8ebf;shadow=1;" vertex="1" parent="ZDt4lYfHtHXYlEFiBq8j-111">
          <mxGeometry x="30" width="260" height="30" as="geometry">
            <mxRectangle width="260" height="30" as="alternateBounds" />
          </mxGeometry>
        </mxCell>
        <mxCell id="ZDt4lYfHtHXYlEFiBq8j-114" value="" style="shape=tableRow;horizontal=0;startSize=0;swimlaneHead=0;swimlaneBody=0;fillColor=none;collapsible=0;dropTarget=0;points=[[0,0.5],[1,0.5]];portConstraint=eastwest;top=0;left=0;right=0;bottom=0;shadow=1;" vertex="1" parent="ZDt4lYfHtHXYlEFiBq8j-86">
          <mxGeometry y="360" width="290" height="30" as="geometry" />
        </mxCell>
        <mxCell id="ZDt4lYfHtHXYlEFiBq8j-115" value="" style="shape=partialRectangle;connectable=0;fillColor=#dae8fc;top=0;left=0;bottom=0;right=0;editable=1;overflow=hidden;strokeColor=#6c8ebf;shadow=1;" vertex="1" parent="ZDt4lYfHtHXYlEFiBq8j-114">
          <mxGeometry width="30" height="30" as="geometry">
            <mxRectangle width="30" height="30" as="alternateBounds" />
          </mxGeometry>
        </mxCell>
        <mxCell id="ZDt4lYfHtHXYlEFiBq8j-116" value="updated_at" style="shape=partialRectangle;connectable=0;fillColor=#dae8fc;top=0;left=0;bottom=0;right=0;align=left;spacingLeft=6;overflow=hidden;strokeColor=#6c8ebf;shadow=1;" vertex="1" parent="ZDt4lYfHtHXYlEFiBq8j-114">
          <mxGeometry x="30" width="260" height="30" as="geometry">
            <mxRectangle width="260" height="30" as="alternateBounds" />
          </mxGeometry>
        </mxCell>
        <mxCell id="ZDt4lYfHtHXYlEFiBq8j-117" value="varchar" style="shape=partialRectangle;fillColor=none;align=left;verticalAlign=middle;strokeColor=none;spacingLeft=34;rotatable=0;points=[[0,0.5],[1,0.5]];portConstraint=eastwest;dropTarget=0;shadow=1;" vertex="1" parent="ZDt4lYfHtHXYlEFiBq8j-83">
          <mxGeometry x="190" y="90" width="90" height="30" as="geometry" />
        </mxCell>
        <mxCell id="ZDt4lYfHtHXYlEFiBq8j-118" value="" style="shape=partialRectangle;top=0;left=0;bottom=0;fillColor=none;stokeWidth=1;dashed=1;align=left;verticalAlign=middle;spacingLeft=4;spacingRight=4;overflow=hidden;rotatable=0;points=[];portConstraint=eastwest;part=1;shadow=1;" vertex="1" connectable="0" parent="ZDt4lYfHtHXYlEFiBq8j-117">
          <mxGeometry width="30" height="30" as="geometry" />
        </mxCell>
        <mxCell id="ZDt4lYfHtHXYlEFiBq8j-119" value="uuid" style="shape=partialRectangle;fillColor=none;align=left;verticalAlign=middle;strokeColor=none;spacingLeft=34;rotatable=0;points=[[0,0.5],[1,0.5]];portConstraint=eastwest;dropTarget=0;shadow=1;" vertex="1" parent="ZDt4lYfHtHXYlEFiBq8j-83">
          <mxGeometry x="190" y="30" width="90" height="30" as="geometry" />
        </mxCell>
        <mxCell id="ZDt4lYfHtHXYlEFiBq8j-120" value="" style="shape=partialRectangle;top=0;left=0;bottom=0;fillColor=none;stokeWidth=1;dashed=1;align=left;verticalAlign=middle;spacingLeft=4;spacingRight=4;overflow=hidden;rotatable=0;points=[];portConstraint=eastwest;part=1;shadow=1;" vertex="1" connectable="0" parent="ZDt4lYfHtHXYlEFiBq8j-119">
          <mxGeometry width="30" height="30" as="geometry" />
        </mxCell>
        <mxCell id="ZDt4lYfHtHXYlEFiBq8j-121" value="varchar" style="shape=partialRectangle;fillColor=none;align=left;verticalAlign=middle;strokeColor=none;spacingLeft=34;rotatable=0;points=[[0,0.5],[1,0.5]];portConstraint=eastwest;dropTarget=0;shadow=1;" vertex="1" parent="ZDt4lYfHtHXYlEFiBq8j-83">
          <mxGeometry x="190" y="60" width="90" height="30" as="geometry" />
        </mxCell>
        <mxCell id="ZDt4lYfHtHXYlEFiBq8j-122" value="" style="shape=partialRectangle;top=0;left=0;bottom=0;fillColor=none;stokeWidth=1;dashed=1;align=left;verticalAlign=middle;spacingLeft=4;spacingRight=4;overflow=hidden;rotatable=0;points=[];portConstraint=eastwest;part=1;shadow=1;" vertex="1" connectable="0" parent="ZDt4lYfHtHXYlEFiBq8j-121">
          <mxGeometry width="30" height="30" as="geometry" />
        </mxCell>
        <mxCell id="ZDt4lYfHtHXYlEFiBq8j-123" value="varchar" style="shape=partialRectangle;fillColor=none;align=left;verticalAlign=middle;strokeColor=none;spacingLeft=34;rotatable=0;points=[[0,0.5],[1,0.5]];portConstraint=eastwest;dropTarget=0;shadow=1;" vertex="1" parent="ZDt4lYfHtHXYlEFiBq8j-83">
          <mxGeometry x="190" y="120" width="90" height="30" as="geometry" />
        </mxCell>
        <mxCell id="ZDt4lYfHtHXYlEFiBq8j-124" value="" style="shape=partialRectangle;top=0;left=0;bottom=0;fillColor=none;stokeWidth=1;dashed=1;align=left;verticalAlign=middle;spacingLeft=4;spacingRight=4;overflow=hidden;rotatable=0;points=[];portConstraint=eastwest;part=1;shadow=1;" vertex="1" connectable="0" parent="ZDt4lYfHtHXYlEFiBq8j-123">
          <mxGeometry width="30" height="30" as="geometry" />
        </mxCell>
        <mxCell id="ZDt4lYfHtHXYlEFiBq8j-125" value="varchar" style="shape=partialRectangle;fillColor=none;align=left;verticalAlign=middle;strokeColor=none;spacingLeft=34;rotatable=0;points=[[0,0.5],[1,0.5]];portConstraint=eastwest;dropTarget=0;shadow=1;" vertex="1" parent="ZDt4lYfHtHXYlEFiBq8j-83">
          <mxGeometry x="190" y="180" width="90" height="30" as="geometry" />
        </mxCell>
        <mxCell id="ZDt4lYfHtHXYlEFiBq8j-126" value="" style="shape=partialRectangle;top=0;left=0;bottom=0;fillColor=none;stokeWidth=1;dashed=1;align=left;verticalAlign=middle;spacingLeft=4;spacingRight=4;overflow=hidden;rotatable=0;points=[];portConstraint=eastwest;part=1;shadow=1;" vertex="1" connectable="0" parent="ZDt4lYfHtHXYlEFiBq8j-125">
          <mxGeometry width="30" height="30" as="geometry" />
        </mxCell>
        <mxCell id="ZDt4lYfHtHXYlEFiBq8j-127" value="timestamp" style="shape=partialRectangle;fillColor=none;align=left;verticalAlign=middle;strokeColor=none;spacingLeft=34;rotatable=0;points=[[0,0.5],[1,0.5]];portConstraint=eastwest;dropTarget=0;shadow=1;" vertex="1" parent="ZDt4lYfHtHXYlEFiBq8j-83">
          <mxGeometry x="190" y="330" width="90" height="30" as="geometry" />
        </mxCell>
        <mxCell id="ZDt4lYfHtHXYlEFiBq8j-128" value="" style="shape=partialRectangle;top=0;left=0;bottom=0;fillColor=none;stokeWidth=1;dashed=1;align=left;verticalAlign=middle;spacingLeft=4;spacingRight=4;overflow=hidden;rotatable=0;points=[];portConstraint=eastwest;part=1;shadow=1;" vertex="1" connectable="0" parent="ZDt4lYfHtHXYlEFiBq8j-127">
          <mxGeometry width="30" height="30" as="geometry" />
        </mxCell>
        <mxCell id="ZDt4lYfHtHXYlEFiBq8j-129" value="timestamp" style="shape=partialRectangle;fillColor=none;align=left;verticalAlign=middle;strokeColor=none;spacingLeft=34;rotatable=0;points=[[0,0.5],[1,0.5]];portConstraint=eastwest;dropTarget=0;shadow=1;" vertex="1" parent="ZDt4lYfHtHXYlEFiBq8j-83">
          <mxGeometry x="190" y="210" width="90" height="30" as="geometry" />
        </mxCell>
        <mxCell id="ZDt4lYfHtHXYlEFiBq8j-130" value="" style="shape=partialRectangle;top=0;left=0;bottom=0;fillColor=none;stokeWidth=1;dashed=1;align=left;verticalAlign=middle;spacingLeft=4;spacingRight=4;overflow=hidden;rotatable=0;points=[];portConstraint=eastwest;part=1;shadow=1;" vertex="1" connectable="0" parent="ZDt4lYfHtHXYlEFiBq8j-129">
          <mxGeometry width="30" height="30" as="geometry" />
        </mxCell>
        <mxCell id="ZDt4lYfHtHXYlEFiBq8j-131" value="timestamp" style="shape=partialRectangle;fillColor=none;align=left;verticalAlign=middle;strokeColor=none;spacingLeft=34;rotatable=0;points=[[0,0.5],[1,0.5]];portConstraint=eastwest;dropTarget=0;shadow=1;" vertex="1" parent="ZDt4lYfHtHXYlEFiBq8j-83">
          <mxGeometry x="190" y="150" width="90" height="30" as="geometry" />
        </mxCell>
        <mxCell id="ZDt4lYfHtHXYlEFiBq8j-132" value="" style="shape=partialRectangle;top=0;left=0;bottom=0;fillColor=none;stokeWidth=1;dashed=1;align=left;verticalAlign=middle;spacingLeft=4;spacingRight=4;overflow=hidden;rotatable=0;points=[];portConstraint=eastwest;part=1;shadow=1;" vertex="1" connectable="0" parent="ZDt4lYfHtHXYlEFiBq8j-131">
          <mxGeometry width="30" height="30" as="geometry" />
        </mxCell>
        <mxCell id="ZDt4lYfHtHXYlEFiBq8j-133" value="varchar" style="shape=partialRectangle;fillColor=none;align=left;verticalAlign=middle;strokeColor=none;spacingLeft=34;rotatable=0;points=[[0,0.5],[1,0.5]];portConstraint=eastwest;dropTarget=0;shadow=1;" vertex="1" parent="ZDt4lYfHtHXYlEFiBq8j-83">
          <mxGeometry x="190" y="240" width="90" height="30" as="geometry" />
        </mxCell>
        <mxCell id="ZDt4lYfHtHXYlEFiBq8j-134" value="" style="shape=partialRectangle;top=0;left=0;bottom=0;fillColor=none;stokeWidth=1;dashed=1;align=left;verticalAlign=middle;spacingLeft=4;spacingRight=4;overflow=hidden;rotatable=0;points=[];portConstraint=eastwest;part=1;shadow=1;" vertex="1" connectable="0" parent="ZDt4lYfHtHXYlEFiBq8j-133">
          <mxGeometry width="30" height="30" as="geometry" />
        </mxCell>
        <mxCell id="ZDt4lYfHtHXYlEFiBq8j-219" value="timestamp" style="shape=partialRectangle;fillColor=none;align=left;verticalAlign=middle;strokeColor=none;spacingLeft=34;rotatable=0;points=[[0,0.5],[1,0.5]];portConstraint=eastwest;dropTarget=0;shadow=1;" vertex="1" parent="ZDt4lYfHtHXYlEFiBq8j-83">
          <mxGeometry x="190" y="360" width="90" height="30" as="geometry" />
        </mxCell>
        <mxCell id="ZDt4lYfHtHXYlEFiBq8j-220" value="" style="shape=partialRectangle;top=0;left=0;bottom=0;fillColor=none;stokeWidth=1;dashed=1;align=left;verticalAlign=middle;spacingLeft=4;spacingRight=4;overflow=hidden;rotatable=0;points=[];portConstraint=eastwest;part=1;shadow=1;" vertex="1" connectable="0" parent="ZDt4lYfHtHXYlEFiBq8j-219">
          <mxGeometry width="30" height="30" as="geometry" />
        </mxCell>
        <mxCell id="ZDt4lYfHtHXYlEFiBq8j-227" value="boolean" style="shape=partialRectangle;fillColor=none;align=left;verticalAlign=middle;strokeColor=none;spacingLeft=34;rotatable=0;points=[[0,0.5],[1,0.5]];portConstraint=eastwest;dropTarget=0;shadow=1;" vertex="1" parent="ZDt4lYfHtHXYlEFiBq8j-83">
          <mxGeometry x="190" y="270" width="90" height="30" as="geometry" />
        </mxCell>
        <mxCell id="ZDt4lYfHtHXYlEFiBq8j-228" value="" style="shape=partialRectangle;top=0;left=0;bottom=0;fillColor=none;stokeWidth=1;dashed=1;align=left;verticalAlign=middle;spacingLeft=4;spacingRight=4;overflow=hidden;rotatable=0;points=[];portConstraint=eastwest;part=1;shadow=1;" vertex="1" connectable="0" parent="ZDt4lYfHtHXYlEFiBq8j-227">
          <mxGeometry width="30" height="30" as="geometry" />
        </mxCell>
        <mxCell id="ZDt4lYfHtHXYlEFiBq8j-229" value="timestamp" style="shape=partialRectangle;fillColor=none;align=left;verticalAlign=middle;strokeColor=none;spacingLeft=34;rotatable=0;points=[[0,0.5],[1,0.5]];portConstraint=eastwest;dropTarget=0;shadow=1;" vertex="1" parent="ZDt4lYfHtHXYlEFiBq8j-83">
          <mxGeometry x="190" y="300" width="90" height="30" as="geometry" />
        </mxCell>
        <mxCell id="ZDt4lYfHtHXYlEFiBq8j-230" value="" style="shape=partialRectangle;top=0;left=0;bottom=0;fillColor=none;stokeWidth=1;dashed=1;align=left;verticalAlign=middle;spacingLeft=4;spacingRight=4;overflow=hidden;rotatable=0;points=[];portConstraint=eastwest;part=1;shadow=1;" vertex="1" connectable="0" parent="ZDt4lYfHtHXYlEFiBq8j-229">
          <mxGeometry width="30" height="30" as="geometry" />
        </mxCell>
        <mxCell id="ZDt4lYfHtHXYlEFiBq8j-135" value="" style="group;shadow=1;" vertex="1" connectable="0" parent="1">
          <mxGeometry x="390" y="330" width="240" height="210" as="geometry" />
        </mxCell>
        <mxCell id="ZDt4lYfHtHXYlEFiBq8j-136" value="Shared Passwords" style="shape=table;startSize=30;container=1;collapsible=1;childLayout=tableLayout;fixedRows=1;rowLines=0;fontStyle=1;align=center;resizeLast=1;html=1;fillColor=#ffe6cc;strokeColor=#d79b00;gradientColor=none;shadow=1;" vertex="1" parent="ZDt4lYfHtHXYlEFiBq8j-135">
          <mxGeometry width="240" height="210" as="geometry" />
        </mxCell>
        <mxCell id="ZDt4lYfHtHXYlEFiBq8j-137" value="" style="shape=tableRow;horizontal=0;startSize=0;swimlaneHead=0;swimlaneBody=0;fillColor=none;collapsible=0;dropTarget=0;points=[[0,0.5],[1,0.5]];portConstraint=eastwest;top=0;left=0;right=0;bottom=1;shadow=1;" vertex="1" parent="ZDt4lYfHtHXYlEFiBq8j-136">
          <mxGeometry y="30" width="240" height="30" as="geometry" />
        </mxCell>
        <mxCell id="ZDt4lYfHtHXYlEFiBq8j-138" value="PK" style="shape=partialRectangle;connectable=0;fillColor=#fff2cc;top=0;left=0;bottom=0;right=0;fontStyle=1;overflow=hidden;whiteSpace=wrap;html=1;strokeColor=#d6b656;shadow=1;" vertex="1" parent="ZDt4lYfHtHXYlEFiBq8j-137">
          <mxGeometry width="30" height="30" as="geometry">
            <mxRectangle width="30" height="30" as="alternateBounds" />
          </mxGeometry>
        </mxCell>
        <mxCell id="ZDt4lYfHtHXYlEFiBq8j-139" value="id" style="shape=partialRectangle;connectable=0;fillColor=#fff2cc;top=0;left=0;bottom=0;right=0;align=left;spacingLeft=6;fontStyle=5;overflow=hidden;whiteSpace=wrap;html=1;strokeColor=#d6b656;shadow=1;" vertex="1" parent="ZDt4lYfHtHXYlEFiBq8j-137">
          <mxGeometry x="30" width="210" height="30" as="geometry">
            <mxRectangle width="210" height="30" as="alternateBounds" />
          </mxGeometry>
        </mxCell>
        <mxCell id="ZDt4lYfHtHXYlEFiBq8j-140" value="" style="shape=tableRow;horizontal=0;startSize=0;swimlaneHead=0;swimlaneBody=0;fillColor=none;collapsible=0;dropTarget=0;points=[[0,0.5],[1,0.5]];portConstraint=eastwest;top=0;left=0;right=0;bottom=0;shadow=1;" vertex="1" parent="ZDt4lYfHtHXYlEFiBq8j-136">
          <mxGeometry y="60" width="240" height="30" as="geometry" />
        </mxCell>
        <mxCell id="ZDt4lYfHtHXYlEFiBq8j-141" value="FK" style="shape=partialRectangle;connectable=0;fillColor=#dae8fc;top=0;left=0;bottom=0;right=0;fontStyle=0;overflow=hidden;whiteSpace=wrap;html=1;strokeColor=#6c8ebf;shadow=1;" vertex="1" parent="ZDt4lYfHtHXYlEFiBq8j-140">
          <mxGeometry width="30" height="30" as="geometry">
            <mxRectangle width="30" height="30" as="alternateBounds" />
          </mxGeometry>
        </mxCell>
        <mxCell id="ZDt4lYfHtHXYlEFiBq8j-142" value="shared_user_id" style="shape=partialRectangle;connectable=0;fillColor=#dae8fc;top=0;left=0;bottom=0;right=0;align=left;spacingLeft=6;fontStyle=0;overflow=hidden;whiteSpace=wrap;html=1;strokeColor=#6c8ebf;shadow=1;" vertex="1" parent="ZDt4lYfHtHXYlEFiBq8j-140">
          <mxGeometry x="30" width="210" height="30" as="geometry">
            <mxRectangle width="210" height="30" as="alternateBounds" />
          </mxGeometry>
        </mxCell>
        <mxCell id="ZDt4lYfHtHXYlEFiBq8j-143" value="" style="shape=tableRow;horizontal=0;startSize=0;swimlaneHead=0;swimlaneBody=0;fillColor=none;collapsible=0;dropTarget=0;points=[[0,0.5],[1,0.5]];portConstraint=eastwest;top=0;left=0;right=0;bottom=0;shadow=1;" vertex="1" parent="ZDt4lYfHtHXYlEFiBq8j-136">
          <mxGeometry y="90" width="240" height="30" as="geometry" />
        </mxCell>
        <mxCell id="ZDt4lYfHtHXYlEFiBq8j-144" value="FK" style="shape=partialRectangle;connectable=0;fillColor=#dae8fc;top=0;left=0;bottom=0;right=0;fontStyle=0;overflow=hidden;whiteSpace=wrap;html=1;strokeColor=#6c8ebf;shadow=1;" vertex="1" parent="ZDt4lYfHtHXYlEFiBq8j-143">
          <mxGeometry width="30" height="30" as="geometry">
            <mxRectangle width="30" height="30" as="alternateBounds" />
          </mxGeometry>
        </mxCell>
        <mxCell id="ZDt4lYfHtHXYlEFiBq8j-145" value="password_id" style="shape=partialRectangle;connectable=0;fillColor=#dae8fc;top=0;left=0;bottom=0;right=0;align=left;spacingLeft=6;fontStyle=0;overflow=hidden;whiteSpace=wrap;html=1;strokeColor=#6c8ebf;shadow=1;" vertex="1" parent="ZDt4lYfHtHXYlEFiBq8j-143">
          <mxGeometry x="30" width="210" height="30" as="geometry">
            <mxRectangle width="210" height="30" as="alternateBounds" />
          </mxGeometry>
        </mxCell>
        <mxCell id="ZDt4lYfHtHXYlEFiBq8j-146" value="" style="shape=tableRow;horizontal=0;startSize=0;swimlaneHead=0;swimlaneBody=0;fillColor=none;collapsible=0;dropTarget=0;points=[[0,0.5],[1,0.5]];portConstraint=eastwest;top=0;left=0;right=0;bottom=0;shadow=1;" vertex="1" parent="ZDt4lYfHtHXYlEFiBq8j-136">
          <mxGeometry y="120" width="240" height="30" as="geometry" />
        </mxCell>
        <mxCell id="ZDt4lYfHtHXYlEFiBq8j-147" value="" style="shape=partialRectangle;connectable=0;fillColor=#dae8fc;top=0;left=0;bottom=0;right=0;editable=1;overflow=hidden;whiteSpace=wrap;html=1;strokeColor=#6c8ebf;shadow=1;" vertex="1" parent="ZDt4lYfHtHXYlEFiBq8j-146">
          <mxGeometry width="30" height="30" as="geometry">
            <mxRectangle width="30" height="30" as="alternateBounds" />
          </mxGeometry>
        </mxCell>
        <mxCell id="ZDt4lYfHtHXYlEFiBq8j-148" value="permission" style="shape=partialRectangle;connectable=0;fillColor=#dae8fc;top=0;left=0;bottom=0;right=0;align=left;spacingLeft=6;overflow=hidden;whiteSpace=wrap;html=1;strokeColor=#6c8ebf;shadow=1;" vertex="1" parent="ZDt4lYfHtHXYlEFiBq8j-146">
          <mxGeometry x="30" width="210" height="30" as="geometry">
            <mxRectangle width="210" height="30" as="alternateBounds" />
          </mxGeometry>
        </mxCell>
        <mxCell id="ZDt4lYfHtHXYlEFiBq8j-149" value="" style="shape=tableRow;horizontal=0;startSize=0;swimlaneHead=0;swimlaneBody=0;fillColor=none;collapsible=0;dropTarget=0;points=[[0,0.5],[1,0.5]];portConstraint=eastwest;top=0;left=0;right=0;bottom=0;shadow=1;" vertex="1" parent="ZDt4lYfHtHXYlEFiBq8j-136">
          <mxGeometry y="150" width="240" height="30" as="geometry" />
        </mxCell>
        <mxCell id="ZDt4lYfHtHXYlEFiBq8j-150" value="" style="shape=partialRectangle;connectable=0;fillColor=#dae8fc;top=0;left=0;bottom=0;right=0;editable=1;overflow=hidden;strokeColor=#6c8ebf;shadow=1;" vertex="1" parent="ZDt4lYfHtHXYlEFiBq8j-149">
          <mxGeometry width="30" height="30" as="geometry">
            <mxRectangle width="30" height="30" as="alternateBounds" />
          </mxGeometry>
        </mxCell>
        <mxCell id="ZDt4lYfHtHXYlEFiBq8j-151" value="created_at" style="shape=partialRectangle;connectable=0;fillColor=#dae8fc;top=0;left=0;bottom=0;right=0;align=left;spacingLeft=6;overflow=hidden;strokeColor=#6c8ebf;shadow=1;" vertex="1" parent="ZDt4lYfHtHXYlEFiBq8j-149">
          <mxGeometry x="30" width="210" height="30" as="geometry">
            <mxRectangle width="210" height="30" as="alternateBounds" />
          </mxGeometry>
        </mxCell>
        <mxCell id="ZDt4lYfHtHXYlEFiBq8j-152" value="" style="shape=tableRow;horizontal=0;startSize=0;swimlaneHead=0;swimlaneBody=0;fillColor=none;collapsible=0;dropTarget=0;points=[[0,0.5],[1,0.5]];portConstraint=eastwest;top=0;left=0;right=0;bottom=0;shadow=1;" vertex="1" parent="ZDt4lYfHtHXYlEFiBq8j-136">
          <mxGeometry y="180" width="240" height="30" as="geometry" />
        </mxCell>
        <mxCell id="ZDt4lYfHtHXYlEFiBq8j-153" value="" style="shape=partialRectangle;connectable=0;fillColor=#dae8fc;top=0;left=0;bottom=0;right=0;editable=1;overflow=hidden;strokeColor=#6c8ebf;shadow=1;" vertex="1" parent="ZDt4lYfHtHXYlEFiBq8j-152">
          <mxGeometry width="30" height="30" as="geometry">
            <mxRectangle width="30" height="30" as="alternateBounds" />
          </mxGeometry>
        </mxCell>
        <mxCell id="ZDt4lYfHtHXYlEFiBq8j-154" value="updated_at" style="shape=partialRectangle;connectable=0;fillColor=#dae8fc;top=0;left=0;bottom=0;right=0;align=left;spacingLeft=6;overflow=hidden;strokeColor=#6c8ebf;shadow=1;" vertex="1" parent="ZDt4lYfHtHXYlEFiBq8j-152">
          <mxGeometry x="30" width="210" height="30" as="geometry">
            <mxRectangle width="210" height="30" as="alternateBounds" />
          </mxGeometry>
        </mxCell>
        <mxCell id="ZDt4lYfHtHXYlEFiBq8j-155" value="uuid" style="shape=partialRectangle;fillColor=none;align=left;verticalAlign=middle;strokeColor=none;spacingLeft=34;rotatable=0;points=[[0,0.5],[1,0.5]];portConstraint=eastwest;dropTarget=0;shadow=1;" vertex="1" parent="ZDt4lYfHtHXYlEFiBq8j-135">
          <mxGeometry x="140" y="60" width="90" height="30" as="geometry" />
        </mxCell>
        <mxCell id="ZDt4lYfHtHXYlEFiBq8j-156" value="" style="shape=partialRectangle;top=0;left=0;bottom=0;fillColor=none;stokeWidth=1;dashed=1;align=left;verticalAlign=middle;spacingLeft=4;spacingRight=4;overflow=hidden;rotatable=0;points=[];portConstraint=eastwest;part=1;shadow=1;" vertex="1" connectable="0" parent="ZDt4lYfHtHXYlEFiBq8j-155">
          <mxGeometry width="30" height="30" as="geometry" />
        </mxCell>
        <mxCell id="ZDt4lYfHtHXYlEFiBq8j-157" value="uuid" style="shape=partialRectangle;fillColor=none;align=left;verticalAlign=middle;strokeColor=none;spacingLeft=34;rotatable=0;points=[[0,0.5],[1,0.5]];portConstraint=eastwest;dropTarget=0;shadow=1;" vertex="1" parent="ZDt4lYfHtHXYlEFiBq8j-135">
          <mxGeometry x="140" y="30" width="90" height="30" as="geometry" />
        </mxCell>
        <mxCell id="ZDt4lYfHtHXYlEFiBq8j-158" value="" style="shape=partialRectangle;top=0;left=0;bottom=0;fillColor=none;stokeWidth=1;dashed=1;align=left;verticalAlign=middle;spacingLeft=4;spacingRight=4;overflow=hidden;rotatable=0;points=[];portConstraint=eastwest;part=1;shadow=1;" vertex="1" connectable="0" parent="ZDt4lYfHtHXYlEFiBq8j-157">
          <mxGeometry width="30" height="30" as="geometry" />
        </mxCell>
        <mxCell id="ZDt4lYfHtHXYlEFiBq8j-159" value="uuid" style="shape=partialRectangle;fillColor=none;align=left;verticalAlign=middle;strokeColor=none;spacingLeft=34;rotatable=0;points=[[0,0.5],[1,0.5]];portConstraint=eastwest;dropTarget=0;shadow=1;" vertex="1" parent="ZDt4lYfHtHXYlEFiBq8j-135">
          <mxGeometry x="140" y="90" width="90" height="30" as="geometry" />
        </mxCell>
        <mxCell id="ZDt4lYfHtHXYlEFiBq8j-160" value="" style="shape=partialRectangle;top=0;left=0;bottom=0;fillColor=none;stokeWidth=1;dashed=1;align=left;verticalAlign=middle;spacingLeft=4;spacingRight=4;overflow=hidden;rotatable=0;points=[];portConstraint=eastwest;part=1;shadow=1;" vertex="1" connectable="0" parent="ZDt4lYfHtHXYlEFiBq8j-159">
          <mxGeometry width="30" height="30" as="geometry" />
        </mxCell>
        <mxCell id="ZDt4lYfHtHXYlEFiBq8j-161" value="enum" style="shape=partialRectangle;fillColor=none;align=left;verticalAlign=middle;strokeColor=none;spacingLeft=34;rotatable=0;points=[[0,0.5],[1,0.5]];portConstraint=eastwest;dropTarget=0;shadow=1;" vertex="1" parent="ZDt4lYfHtHXYlEFiBq8j-135">
          <mxGeometry x="140" y="120" width="90" height="30" as="geometry" />
        </mxCell>
        <mxCell id="ZDt4lYfHtHXYlEFiBq8j-162" value="" style="shape=partialRectangle;top=0;left=0;bottom=0;fillColor=none;stokeWidth=1;dashed=1;align=left;verticalAlign=middle;spacingLeft=4;spacingRight=4;overflow=hidden;rotatable=0;points=[];portConstraint=eastwest;part=1;shadow=1;" vertex="1" connectable="0" parent="ZDt4lYfHtHXYlEFiBq8j-161">
          <mxGeometry width="30" height="30" as="geometry" />
        </mxCell>
        <mxCell id="ZDt4lYfHtHXYlEFiBq8j-163" value="timestamp" style="shape=partialRectangle;fillColor=none;align=left;verticalAlign=middle;strokeColor=none;spacingLeft=34;rotatable=0;points=[[0,0.5],[1,0.5]];portConstraint=eastwest;dropTarget=0;shadow=1;" vertex="1" parent="ZDt4lYfHtHXYlEFiBq8j-135">
          <mxGeometry x="140" y="150" width="90" height="30" as="geometry" />
        </mxCell>
        <mxCell id="ZDt4lYfHtHXYlEFiBq8j-164" value="" style="shape=partialRectangle;top=0;left=0;bottom=0;fillColor=none;stokeWidth=1;dashed=1;align=left;verticalAlign=middle;spacingLeft=4;spacingRight=4;overflow=hidden;rotatable=0;points=[];portConstraint=eastwest;part=1;shadow=1;" vertex="1" connectable="0" parent="ZDt4lYfHtHXYlEFiBq8j-163">
          <mxGeometry width="30" height="30" as="geometry" />
        </mxCell>
        <mxCell id="ZDt4lYfHtHXYlEFiBq8j-165" value="timestamp" style="shape=partialRectangle;fillColor=none;align=left;verticalAlign=middle;strokeColor=none;spacingLeft=34;rotatable=0;points=[[0,0.5],[1,0.5]];portConstraint=eastwest;dropTarget=0;shadow=1;" vertex="1" parent="ZDt4lYfHtHXYlEFiBq8j-135">
          <mxGeometry x="140" y="180" width="90" height="30" as="geometry" />
        </mxCell>
        <mxCell id="ZDt4lYfHtHXYlEFiBq8j-166" value="" style="shape=partialRectangle;top=0;left=0;bottom=0;fillColor=none;stokeWidth=1;dashed=1;align=left;verticalAlign=middle;spacingLeft=4;spacingRight=4;overflow=hidden;rotatable=0;points=[];portConstraint=eastwest;part=1;shadow=1;" vertex="1" connectable="0" parent="ZDt4lYfHtHXYlEFiBq8j-165">
          <mxGeometry width="30" height="30" as="geometry" />
        </mxCell>
        <mxCell id="ZDt4lYfHtHXYlEFiBq8j-167" value="" style="group;shadow=1;" vertex="1" connectable="0" parent="1">
          <mxGeometry x="840" y="490" width="240" height="330" as="geometry" />
        </mxCell>
        <mxCell id="ZDt4lYfHtHXYlEFiBq8j-168" value="Password" style="shape=table;startSize=30;container=1;collapsible=1;childLayout=tableLayout;fixedRows=1;rowLines=0;fontStyle=1;align=center;resizeLast=1;html=1;fillColor=#ffe6cc;strokeColor=#d79b00;gradientColor=none;shadow=1;" vertex="1" parent="ZDt4lYfHtHXYlEFiBq8j-167">
          <mxGeometry width="240" height="330" as="geometry" />
        </mxCell>
        <mxCell id="ZDt4lYfHtHXYlEFiBq8j-169" value="" style="shape=tableRow;horizontal=0;startSize=0;swimlaneHead=0;swimlaneBody=0;fillColor=none;collapsible=0;dropTarget=0;points=[[0,0.5],[1,0.5]];portConstraint=eastwest;top=0;left=0;right=0;bottom=1;shadow=1;" vertex="1" parent="ZDt4lYfHtHXYlEFiBq8j-168">
          <mxGeometry y="30" width="240" height="30" as="geometry" />
        </mxCell>
        <mxCell id="ZDt4lYfHtHXYlEFiBq8j-170" value="PK" style="shape=partialRectangle;connectable=0;fillColor=#fff2cc;top=0;left=0;bottom=0;right=0;fontStyle=1;overflow=hidden;whiteSpace=wrap;html=1;strokeColor=#d6b656;shadow=1;" vertex="1" parent="ZDt4lYfHtHXYlEFiBq8j-169">
          <mxGeometry width="30" height="30" as="geometry">
            <mxRectangle width="30" height="30" as="alternateBounds" />
          </mxGeometry>
        </mxCell>
        <mxCell id="ZDt4lYfHtHXYlEFiBq8j-171" value="id" style="shape=partialRectangle;connectable=0;fillColor=#fff2cc;top=0;left=0;bottom=0;right=0;align=left;spacingLeft=6;fontStyle=5;overflow=hidden;whiteSpace=wrap;html=1;strokeColor=#d6b656;shadow=1;" vertex="1" parent="ZDt4lYfHtHXYlEFiBq8j-169">
          <mxGeometry x="30" width="210" height="30" as="geometry">
            <mxRectangle width="210" height="30" as="alternateBounds" />
          </mxGeometry>
        </mxCell>
        <mxCell id="ZDt4lYfHtHXYlEFiBq8j-172" value="" style="shape=tableRow;horizontal=0;startSize=0;swimlaneHead=0;swimlaneBody=0;fillColor=none;collapsible=0;dropTarget=0;points=[[0,0.5],[1,0.5]];portConstraint=eastwest;top=0;left=0;right=0;bottom=0;shadow=1;" vertex="1" parent="ZDt4lYfHtHXYlEFiBq8j-168">
          <mxGeometry y="60" width="240" height="30" as="geometry" />
        </mxCell>
        <mxCell id="ZDt4lYfHtHXYlEFiBq8j-173" value="FK" style="shape=partialRectangle;connectable=0;fillColor=#dae8fc;top=0;left=0;bottom=0;right=0;fontStyle=0;overflow=hidden;whiteSpace=wrap;html=1;strokeColor=#6c8ebf;shadow=1;" vertex="1" parent="ZDt4lYfHtHXYlEFiBq8j-172">
          <mxGeometry width="30" height="30" as="geometry">
            <mxRectangle width="30" height="30" as="alternateBounds" />
          </mxGeometry>
        </mxCell>
        <mxCell id="ZDt4lYfHtHXYlEFiBq8j-174" value="owner_user_id" style="shape=partialRectangle;connectable=0;fillColor=#dae8fc;top=0;left=0;bottom=0;right=0;align=left;spacingLeft=6;fontStyle=0;overflow=hidden;whiteSpace=wrap;html=1;strokeColor=#6c8ebf;shadow=1;" vertex="1" parent="ZDt4lYfHtHXYlEFiBq8j-172">
          <mxGeometry x="30" width="210" height="30" as="geometry">
            <mxRectangle width="210" height="30" as="alternateBounds" />
          </mxGeometry>
        </mxCell>
        <mxCell id="ZDt4lYfHtHXYlEFiBq8j-175" value="" style="shape=tableRow;horizontal=0;startSize=0;swimlaneHead=0;swimlaneBody=0;fillColor=none;collapsible=0;dropTarget=0;points=[[0,0.5],[1,0.5]];portConstraint=eastwest;top=0;left=0;right=0;bottom=0;shadow=1;" vertex="1" parent="ZDt4lYfHtHXYlEFiBq8j-168">
          <mxGeometry y="90" width="240" height="30" as="geometry" />
        </mxCell>
        <mxCell id="ZDt4lYfHtHXYlEFiBq8j-176" value="FK" style="shape=partialRectangle;connectable=0;fillColor=#dae8fc;top=0;left=0;bottom=0;right=0;fontStyle=0;overflow=hidden;whiteSpace=wrap;html=1;strokeColor=#6c8ebf;shadow=1;" vertex="1" parent="ZDt4lYfHtHXYlEFiBq8j-175">
          <mxGeometry width="30" height="30" as="geometry">
            <mxRectangle width="30" height="30" as="alternateBounds" />
          </mxGeometry>
        </mxCell>
        <mxCell id="ZDt4lYfHtHXYlEFiBq8j-177" value="folder_id" style="shape=partialRectangle;connectable=0;fillColor=#dae8fc;top=0;left=0;bottom=0;right=0;align=left;spacingLeft=6;fontStyle=0;overflow=hidden;whiteSpace=wrap;html=1;strokeColor=#6c8ebf;shadow=1;" vertex="1" parent="ZDt4lYfHtHXYlEFiBq8j-175">
          <mxGeometry x="30" width="210" height="30" as="geometry">
            <mxRectangle width="210" height="30" as="alternateBounds" />
          </mxGeometry>
        </mxCell>
        <mxCell id="ZDt4lYfHtHXYlEFiBq8j-178" value="" style="shape=tableRow;horizontal=0;startSize=0;swimlaneHead=0;swimlaneBody=0;fillColor=none;collapsible=0;dropTarget=0;points=[[0,0.5],[1,0.5]];portConstraint=eastwest;top=0;left=0;right=0;bottom=0;shadow=1;" vertex="1" parent="ZDt4lYfHtHXYlEFiBq8j-168">
          <mxGeometry y="120" width="240" height="30" as="geometry" />
        </mxCell>
        <mxCell id="ZDt4lYfHtHXYlEFiBq8j-179" value="" style="shape=partialRectangle;connectable=0;fillColor=#dae8fc;top=0;left=0;bottom=0;right=0;editable=1;overflow=hidden;whiteSpace=wrap;html=1;strokeColor=#6c8ebf;shadow=1;" vertex="1" parent="ZDt4lYfHtHXYlEFiBq8j-178">
          <mxGeometry width="30" height="30" as="geometry">
            <mxRectangle width="30" height="30" as="alternateBounds" />
          </mxGeometry>
        </mxCell>
        <mxCell id="ZDt4lYfHtHXYlEFiBq8j-180" value="name" style="shape=partialRectangle;connectable=0;fillColor=#dae8fc;top=0;left=0;bottom=0;right=0;align=left;spacingLeft=6;overflow=hidden;whiteSpace=wrap;html=1;strokeColor=#6c8ebf;shadow=1;" vertex="1" parent="ZDt4lYfHtHXYlEFiBq8j-178">
          <mxGeometry x="30" width="210" height="30" as="geometry">
            <mxRectangle width="210" height="30" as="alternateBounds" />
          </mxGeometry>
        </mxCell>
        <mxCell id="ZDt4lYfHtHXYlEFiBq8j-181" value="" style="shape=tableRow;horizontal=0;startSize=0;swimlaneHead=0;swimlaneBody=0;fillColor=none;collapsible=0;dropTarget=0;points=[[0,0.5],[1,0.5]];portConstraint=eastwest;top=0;left=0;right=0;bottom=0;shadow=1;" vertex="1" parent="ZDt4lYfHtHXYlEFiBq8j-168">
          <mxGeometry y="150" width="240" height="30" as="geometry" />
        </mxCell>
        <mxCell id="ZDt4lYfHtHXYlEFiBq8j-182" value="" style="shape=partialRectangle;connectable=0;fillColor=#dae8fc;top=0;left=0;bottom=0;right=0;editable=1;overflow=hidden;whiteSpace=wrap;html=1;strokeColor=#6c8ebf;shadow=1;" vertex="1" parent="ZDt4lYfHtHXYlEFiBq8j-181">
          <mxGeometry width="30" height="30" as="geometry">
            <mxRectangle width="30" height="30" as="alternateBounds" />
          </mxGeometry>
        </mxCell>
        <mxCell id="ZDt4lYfHtHXYlEFiBq8j-183" value="password" style="shape=partialRectangle;connectable=0;fillColor=#dae8fc;top=0;left=0;bottom=0;right=0;align=left;spacingLeft=6;overflow=hidden;whiteSpace=wrap;html=1;strokeColor=#6c8ebf;shadow=1;" vertex="1" parent="ZDt4lYfHtHXYlEFiBq8j-181">
          <mxGeometry x="30" width="210" height="30" as="geometry">
            <mxRectangle width="210" height="30" as="alternateBounds" />
          </mxGeometry>
        </mxCell>
        <mxCell id="ZDt4lYfHtHXYlEFiBq8j-184" value="" style="shape=tableRow;horizontal=0;startSize=0;swimlaneHead=0;swimlaneBody=0;fillColor=none;collapsible=0;dropTarget=0;points=[[0,0.5],[1,0.5]];portConstraint=eastwest;top=0;left=0;right=0;bottom=0;shadow=1;" vertex="1" parent="ZDt4lYfHtHXYlEFiBq8j-168">
          <mxGeometry y="180" width="240" height="30" as="geometry" />
        </mxCell>
        <mxCell id="ZDt4lYfHtHXYlEFiBq8j-185" value="" style="shape=partialRectangle;connectable=0;fillColor=#dae8fc;top=0;left=0;bottom=0;right=0;editable=1;overflow=hidden;whiteSpace=wrap;html=1;strokeColor=#6c8ebf;shadow=1;" vertex="1" parent="ZDt4lYfHtHXYlEFiBq8j-184">
          <mxGeometry width="30" height="30" as="geometry">
            <mxRectangle width="30" height="30" as="alternateBounds" />
          </mxGeometry>
        </mxCell>
        <mxCell id="ZDt4lYfHtHXYlEFiBq8j-186" value="username" style="shape=partialRectangle;connectable=0;fillColor=#dae8fc;top=0;left=0;bottom=0;right=0;align=left;spacingLeft=6;overflow=hidden;whiteSpace=wrap;html=1;strokeColor=#6c8ebf;shadow=1;" vertex="1" parent="ZDt4lYfHtHXYlEFiBq8j-184">
          <mxGeometry x="30" width="210" height="30" as="geometry">
            <mxRectangle width="210" height="30" as="alternateBounds" />
          </mxGeometry>
        </mxCell>
        <mxCell id="ZDt4lYfHtHXYlEFiBq8j-187" value="" style="shape=tableRow;horizontal=0;startSize=0;swimlaneHead=0;swimlaneBody=0;fillColor=none;collapsible=0;dropTarget=0;points=[[0,0.5],[1,0.5]];portConstraint=eastwest;top=0;left=0;right=0;bottom=0;shadow=1;" vertex="1" parent="ZDt4lYfHtHXYlEFiBq8j-168">
          <mxGeometry y="210" width="240" height="30" as="geometry" />
        </mxCell>
        <mxCell id="ZDt4lYfHtHXYlEFiBq8j-188" value="" style="shape=partialRectangle;connectable=0;fillColor=#dae8fc;top=0;left=0;bottom=0;right=0;editable=1;overflow=hidden;whiteSpace=wrap;html=1;strokeColor=#6c8ebf;shadow=1;" vertex="1" parent="ZDt4lYfHtHXYlEFiBq8j-187">
          <mxGeometry width="30" height="30" as="geometry">
            <mxRectangle width="30" height="30" as="alternateBounds" />
          </mxGeometry>
        </mxCell>
        <mxCell id="ZDt4lYfHtHXYlEFiBq8j-189" value="urls" style="shape=partialRectangle;connectable=0;fillColor=#dae8fc;top=0;left=0;bottom=0;right=0;align=left;spacingLeft=6;overflow=hidden;whiteSpace=wrap;html=1;strokeColor=#6c8ebf;shadow=1;" vertex="1" parent="ZDt4lYfHtHXYlEFiBq8j-187">
          <mxGeometry x="30" width="210" height="30" as="geometry">
            <mxRectangle width="210" height="30" as="alternateBounds" />
          </mxGeometry>
        </mxCell>
        <mxCell id="ZDt4lYfHtHXYlEFiBq8j-190" value="" style="shape=tableRow;horizontal=0;startSize=0;swimlaneHead=0;swimlaneBody=0;fillColor=none;collapsible=0;dropTarget=0;points=[[0,0.5],[1,0.5]];portConstraint=eastwest;top=0;left=0;right=0;bottom=0;shadow=1;" vertex="1" parent="ZDt4lYfHtHXYlEFiBq8j-168">
          <mxGeometry y="240" width="240" height="30" as="geometry" />
        </mxCell>
        <mxCell id="ZDt4lYfHtHXYlEFiBq8j-191" value="" style="shape=partialRectangle;connectable=0;fillColor=#dae8fc;top=0;left=0;bottom=0;right=0;editable=1;overflow=hidden;whiteSpace=wrap;html=1;strokeColor=#6c8ebf;shadow=1;" vertex="1" parent="ZDt4lYfHtHXYlEFiBq8j-190">
          <mxGeometry width="30" height="30" as="geometry">
            <mxRectangle width="30" height="30" as="alternateBounds" />
          </mxGeometry>
        </mxCell>
        <mxCell id="ZDt4lYfHtHXYlEFiBq8j-192" value="notes" style="shape=partialRectangle;connectable=0;fillColor=#dae8fc;top=0;left=0;bottom=0;right=0;align=left;spacingLeft=6;overflow=hidden;whiteSpace=wrap;html=1;strokeColor=#6c8ebf;shadow=1;" vertex="1" parent="ZDt4lYfHtHXYlEFiBq8j-190">
          <mxGeometry x="30" width="210" height="30" as="geometry">
            <mxRectangle width="210" height="30" as="alternateBounds" />
          </mxGeometry>
        </mxCell>
        <mxCell id="ZDt4lYfHtHXYlEFiBq8j-193" value="" style="shape=tableRow;horizontal=0;startSize=0;swimlaneHead=0;swimlaneBody=0;fillColor=none;collapsible=0;dropTarget=0;points=[[0,0.5],[1,0.5]];portConstraint=eastwest;top=0;left=0;right=0;bottom=0;shadow=1;" vertex="1" parent="ZDt4lYfHtHXYlEFiBq8j-168">
          <mxGeometry y="270" width="240" height="30" as="geometry" />
        </mxCell>
        <mxCell id="ZDt4lYfHtHXYlEFiBq8j-194" value="" style="shape=partialRectangle;connectable=0;fillColor=#dae8fc;top=0;left=0;bottom=0;right=0;editable=1;overflow=hidden;strokeColor=#6c8ebf;shadow=1;" vertex="1" parent="ZDt4lYfHtHXYlEFiBq8j-193">
          <mxGeometry width="30" height="30" as="geometry">
            <mxRectangle width="30" height="30" as="alternateBounds" />
          </mxGeometry>
        </mxCell>
        <mxCell id="ZDt4lYfHtHXYlEFiBq8j-195" value="created_at" style="shape=partialRectangle;connectable=0;fillColor=#dae8fc;top=0;left=0;bottom=0;right=0;align=left;spacingLeft=6;overflow=hidden;strokeColor=#6c8ebf;shadow=1;" vertex="1" parent="ZDt4lYfHtHXYlEFiBq8j-193">
          <mxGeometry x="30" width="210" height="30" as="geometry">
            <mxRectangle width="210" height="30" as="alternateBounds" />
          </mxGeometry>
        </mxCell>
        <mxCell id="ZDt4lYfHtHXYlEFiBq8j-196" value="" style="shape=tableRow;horizontal=0;startSize=0;swimlaneHead=0;swimlaneBody=0;fillColor=none;collapsible=0;dropTarget=0;points=[[0,0.5],[1,0.5]];portConstraint=eastwest;top=0;left=0;right=0;bottom=0;shadow=1;" vertex="1" parent="ZDt4lYfHtHXYlEFiBq8j-168">
          <mxGeometry y="300" width="240" height="30" as="geometry" />
        </mxCell>
        <mxCell id="ZDt4lYfHtHXYlEFiBq8j-197" value="" style="shape=partialRectangle;connectable=0;fillColor=#dae8fc;top=0;left=0;bottom=0;right=0;editable=1;overflow=hidden;strokeColor=#6c8ebf;shadow=1;" vertex="1" parent="ZDt4lYfHtHXYlEFiBq8j-196">
          <mxGeometry width="30" height="30" as="geometry">
            <mxRectangle width="30" height="30" as="alternateBounds" />
          </mxGeometry>
        </mxCell>
        <mxCell id="ZDt4lYfHtHXYlEFiBq8j-198" value="updated_at" style="shape=partialRectangle;connectable=0;fillColor=#dae8fc;top=0;left=0;bottom=0;right=0;align=left;spacingLeft=6;overflow=hidden;strokeColor=#6c8ebf;shadow=1;" vertex="1" parent="ZDt4lYfHtHXYlEFiBq8j-196">
          <mxGeometry x="30" width="210" height="30" as="geometry">
            <mxRectangle width="210" height="30" as="alternateBounds" />
          </mxGeometry>
        </mxCell>
        <mxCell id="ZDt4lYfHtHXYlEFiBq8j-199" value="uuid" style="shape=partialRectangle;fillColor=none;align=left;verticalAlign=middle;strokeColor=none;spacingLeft=34;rotatable=0;points=[[0,0.5],[1,0.5]];portConstraint=eastwest;dropTarget=0;shadow=1;" vertex="1" parent="ZDt4lYfHtHXYlEFiBq8j-167">
          <mxGeometry x="140" y="30" width="90" height="30" as="geometry" />
        </mxCell>
        <mxCell id="ZDt4lYfHtHXYlEFiBq8j-200" value="" style="shape=partialRectangle;top=0;left=0;bottom=0;fillColor=none;stokeWidth=1;dashed=1;align=left;verticalAlign=middle;spacingLeft=4;spacingRight=4;overflow=hidden;rotatable=0;points=[];portConstraint=eastwest;part=1;shadow=1;" vertex="1" connectable="0" parent="ZDt4lYfHtHXYlEFiBq8j-199">
          <mxGeometry width="30" height="30" as="geometry" />
        </mxCell>
        <mxCell id="ZDt4lYfHtHXYlEFiBq8j-201" value="uuid" style="shape=partialRectangle;fillColor=none;align=left;verticalAlign=middle;strokeColor=none;spacingLeft=34;rotatable=0;points=[[0,0.5],[1,0.5]];portConstraint=eastwest;dropTarget=0;shadow=1;" vertex="1" parent="ZDt4lYfHtHXYlEFiBq8j-167">
          <mxGeometry x="140" y="60" width="90" height="30" as="geometry" />
        </mxCell>
        <mxCell id="ZDt4lYfHtHXYlEFiBq8j-202" value="" style="shape=partialRectangle;top=0;left=0;bottom=0;fillColor=none;stokeWidth=1;dashed=1;align=left;verticalAlign=middle;spacingLeft=4;spacingRight=4;overflow=hidden;rotatable=0;points=[];portConstraint=eastwest;part=1;shadow=1;" vertex="1" connectable="0" parent="ZDt4lYfHtHXYlEFiBq8j-201">
          <mxGeometry width="30" height="30" as="geometry" />
        </mxCell>
        <mxCell id="ZDt4lYfHtHXYlEFiBq8j-203" value="uuid" style="shape=partialRectangle;fillColor=none;align=left;verticalAlign=middle;strokeColor=none;spacingLeft=34;rotatable=0;points=[[0,0.5],[1,0.5]];portConstraint=eastwest;dropTarget=0;shadow=1;" vertex="1" parent="ZDt4lYfHtHXYlEFiBq8j-167">
          <mxGeometry x="140" y="90" width="90" height="30" as="geometry" />
        </mxCell>
        <mxCell id="ZDt4lYfHtHXYlEFiBq8j-204" value="" style="shape=partialRectangle;top=0;left=0;bottom=0;fillColor=none;stokeWidth=1;dashed=1;align=left;verticalAlign=middle;spacingLeft=4;spacingRight=4;overflow=hidden;rotatable=0;points=[];portConstraint=eastwest;part=1;shadow=1;" vertex="1" connectable="0" parent="ZDt4lYfHtHXYlEFiBq8j-203">
          <mxGeometry width="30" height="30" as="geometry" />
        </mxCell>
        <mxCell id="ZDt4lYfHtHXYlEFiBq8j-205" value="varchar" style="shape=partialRectangle;fillColor=none;align=left;verticalAlign=middle;strokeColor=none;spacingLeft=34;rotatable=0;points=[[0,0.5],[1,0.5]];portConstraint=eastwest;dropTarget=0;shadow=1;" vertex="1" parent="ZDt4lYfHtHXYlEFiBq8j-167">
          <mxGeometry x="140" y="120" width="90" height="30" as="geometry" />
        </mxCell>
        <mxCell id="ZDt4lYfHtHXYlEFiBq8j-206" value="" style="shape=partialRectangle;top=0;left=0;bottom=0;fillColor=none;stokeWidth=1;dashed=1;align=left;verticalAlign=middle;spacingLeft=4;spacingRight=4;overflow=hidden;rotatable=0;points=[];portConstraint=eastwest;part=1;shadow=1;" vertex="1" connectable="0" parent="ZDt4lYfHtHXYlEFiBq8j-205">
          <mxGeometry width="30" height="30" as="geometry" />
        </mxCell>
        <mxCell id="ZDt4lYfHtHXYlEFiBq8j-207" value="varchar" style="shape=partialRectangle;fillColor=none;align=left;verticalAlign=middle;strokeColor=none;spacingLeft=34;rotatable=0;points=[[0,0.5],[1,0.5]];portConstraint=eastwest;dropTarget=0;shadow=1;" vertex="1" parent="ZDt4lYfHtHXYlEFiBq8j-167">
          <mxGeometry x="140" y="150" width="90" height="30" as="geometry" />
        </mxCell>
        <mxCell id="ZDt4lYfHtHXYlEFiBq8j-208" value="" style="shape=partialRectangle;top=0;left=0;bottom=0;fillColor=none;stokeWidth=1;dashed=1;align=left;verticalAlign=middle;spacingLeft=4;spacingRight=4;overflow=hidden;rotatable=0;points=[];portConstraint=eastwest;part=1;shadow=1;" vertex="1" connectable="0" parent="ZDt4lYfHtHXYlEFiBq8j-207">
          <mxGeometry width="30" height="30" as="geometry" />
        </mxCell>
        <mxCell id="ZDt4lYfHtHXYlEFiBq8j-209" value="varchar" style="shape=partialRectangle;fillColor=none;align=left;verticalAlign=middle;strokeColor=none;spacingLeft=34;rotatable=0;points=[[0,0.5],[1,0.5]];portConstraint=eastwest;dropTarget=0;shadow=1;" vertex="1" parent="ZDt4lYfHtHXYlEFiBq8j-167">
          <mxGeometry x="140" y="180" width="90" height="30" as="geometry" />
        </mxCell>
        <mxCell id="ZDt4lYfHtHXYlEFiBq8j-210" value="" style="shape=partialRectangle;top=0;left=0;bottom=0;fillColor=none;stokeWidth=1;dashed=1;align=left;verticalAlign=middle;spacingLeft=4;spacingRight=4;overflow=hidden;rotatable=0;points=[];portConstraint=eastwest;part=1;shadow=1;" vertex="1" connectable="0" parent="ZDt4lYfHtHXYlEFiBq8j-209">
          <mxGeometry width="30" height="30" as="geometry" />
        </mxCell>
        <mxCell id="ZDt4lYfHtHXYlEFiBq8j-211" value="json" style="shape=partialRectangle;fillColor=none;align=left;verticalAlign=middle;strokeColor=none;spacingLeft=34;rotatable=0;points=[[0,0.5],[1,0.5]];portConstraint=eastwest;dropTarget=0;shadow=1;" vertex="1" parent="ZDt4lYfHtHXYlEFiBq8j-167">
          <mxGeometry x="140" y="210" width="90" height="30" as="geometry" />
        </mxCell>
        <mxCell id="ZDt4lYfHtHXYlEFiBq8j-212" value="" style="shape=partialRectangle;top=0;left=0;bottom=0;fillColor=none;stokeWidth=1;dashed=1;align=left;verticalAlign=middle;spacingLeft=4;spacingRight=4;overflow=hidden;rotatable=0;points=[];portConstraint=eastwest;part=1;shadow=1;" vertex="1" connectable="0" parent="ZDt4lYfHtHXYlEFiBq8j-211">
          <mxGeometry width="30" height="30" as="geometry" />
        </mxCell>
        <mxCell id="ZDt4lYfHtHXYlEFiBq8j-213" value="text" style="shape=partialRectangle;fillColor=none;align=left;verticalAlign=middle;strokeColor=none;spacingLeft=34;rotatable=0;points=[[0,0.5],[1,0.5]];portConstraint=eastwest;dropTarget=0;shadow=1;" vertex="1" parent="ZDt4lYfHtHXYlEFiBq8j-167">
          <mxGeometry x="140" y="240" width="90" height="30" as="geometry" />
        </mxCell>
        <mxCell id="ZDt4lYfHtHXYlEFiBq8j-214" value="" style="shape=partialRectangle;top=0;left=0;bottom=0;fillColor=none;stokeWidth=1;dashed=1;align=left;verticalAlign=middle;spacingLeft=4;spacingRight=4;overflow=hidden;rotatable=0;points=[];portConstraint=eastwest;part=1;shadow=1;" vertex="1" connectable="0" parent="ZDt4lYfHtHXYlEFiBq8j-213">
          <mxGeometry width="30" height="30" as="geometry" />
        </mxCell>
        <mxCell id="ZDt4lYfHtHXYlEFiBq8j-215" value="timestamp" style="shape=partialRectangle;fillColor=none;align=left;verticalAlign=middle;strokeColor=none;spacingLeft=34;rotatable=0;points=[[0,0.5],[1,0.5]];portConstraint=eastwest;dropTarget=0;shadow=1;" vertex="1" parent="ZDt4lYfHtHXYlEFiBq8j-167">
          <mxGeometry x="140" y="270" width="90" height="30" as="geometry" />
        </mxCell>
        <mxCell id="ZDt4lYfHtHXYlEFiBq8j-216" value="" style="shape=partialRectangle;top=0;left=0;bottom=0;fillColor=none;stokeWidth=1;dashed=1;align=left;verticalAlign=middle;spacingLeft=4;spacingRight=4;overflow=hidden;rotatable=0;points=[];portConstraint=eastwest;part=1;shadow=1;" vertex="1" connectable="0" parent="ZDt4lYfHtHXYlEFiBq8j-215">
          <mxGeometry width="30" height="30" as="geometry" />
        </mxCell>
        <mxCell id="ZDt4lYfHtHXYlEFiBq8j-217" value="timestamp" style="shape=partialRectangle;fillColor=none;align=left;verticalAlign=middle;strokeColor=none;spacingLeft=34;rotatable=0;points=[[0,0.5],[1,0.5]];portConstraint=eastwest;dropTarget=0;shadow=1;" vertex="1" parent="ZDt4lYfHtHXYlEFiBq8j-167">
          <mxGeometry x="140" y="300" width="90" height="30" as="geometry" />
        </mxCell>
        <mxCell id="ZDt4lYfHtHXYlEFiBq8j-218" value="" style="shape=partialRectangle;top=0;left=0;bottom=0;fillColor=none;stokeWidth=1;dashed=1;align=left;verticalAlign=middle;spacingLeft=4;spacingRight=4;overflow=hidden;rotatable=0;points=[];portConstraint=eastwest;part=1;shadow=1;" vertex="1" connectable="0" parent="ZDt4lYfHtHXYlEFiBq8j-217">
          <mxGeometry width="30" height="30" as="geometry" />
        </mxCell>
      </root>
    </mxGraphModel>
  </diagram>
</mxfile>
